<svg width="19" height="49" viewBox="0 0 19 49" fill="none" xmlns="http://www.w3.org/2000/svg">
<path d="M14 18.3333H3.16667C2.59203 18.3333 2.04093 18.1051 1.6346 17.6987C1.22827 17.2924 1 16.7413 1 16.1667V3.16667C1 2.59203 1.22827 2.04093 1.6346 1.6346C2.04093 1.22827 2.59203 1 3.16667 1H12.9167" stroke="#1A82CA" stroke-linecap="round" stroke-linejoin="round"/>
<path d="M5.29688 1.00065H16.1302C16.7048 1.00065 17.2559 1.22892 17.6623 1.63525C18.0686 2.04158 18.2969 2.59268 18.2969 3.16732L18.2969 16.1673C18.2969 16.742 18.0686 17.2931 17.6623 17.6994C17.2559 18.1057 16.7048 18.334 16.1302 18.334H6.38021" stroke="#1A82CA" stroke-linecap="round" stroke-linejoin="round"/>
<path d="M6.41667 38.5833L9.66667 41.8333L18.3333 33.1667M18.3333 39.6667V46.1667C18.3333 46.7413 18.1051 47.2924 17.6987 47.6987C17.2924 48.1051 16.7413 48.3333 16.1667 48.3333H3.16667C2.59203 48.3333 2.04093 48.1051 1.6346 47.6987C1.22827 47.2924 1 46.7413 1 46.1667V33.1667C1 32.592 1.22827 32.0409 1.6346 31.6346C2.04093 31.2283 2.59203 31 3.16667 31H12.9167" stroke="#1A82CA" stroke-linecap="round" stroke-linejoin="round"/>
</svg>
