<svg width="166" height="35" viewBox="0 0 166 35" fill="none" xmlns="http://www.w3.org/2000/svg">
<path d="M69.0355 7V28H65.3477V11.5208H65.2986L58.7097 28H56.2512L49.5148 11.5208H49.4656V28H46.0729V7H51.3833L57.4804 22.5556H57.5788L64.0201 7H69.0355ZM72.0841 8.60417C72.0841 8.02083 72.2808 7.53472 72.7233 7.14583C73.1659 6.75694 73.6576 6.5625 74.2476 6.5625C74.8868 6.5625 75.4277 6.75694 75.8211 7.14583C76.2145 7.53472 76.4603 8.02083 76.4603 8.60417C76.4603 9.1875 76.2636 9.67361 75.8211 10.0625C75.3786 10.4514 74.8868 10.6458 74.2476 10.6458C73.6084 10.6458 73.1167 10.4514 72.7233 10.0625C72.33 9.625 72.0841 9.13889 72.0841 8.60417ZM76.0669 12.9306V28H72.4775V12.9306H76.0669ZM86.9337 25.4236C87.4745 25.4236 88.0646 25.3264 88.7038 25.0347C89.343 24.7917 89.9331 24.4514 90.4739 24.0625V27.3681C89.8839 27.7083 89.2447 27.9514 88.5071 28.0972C87.7695 28.2431 86.9828 28.3403 86.0978 28.3403C83.8359 28.3403 82.0166 27.6597 80.6398 26.25C79.2139 24.8403 78.5255 23.0417 78.5255 20.9028C78.5255 18.4722 79.263 16.4792 80.689 14.9236C82.1149 13.3681 84.1309 12.5903 86.7861 12.5903C87.4745 12.5903 88.1629 12.6875 88.8021 12.8333C89.4905 12.9792 90.0314 13.2222 90.4248 13.4167V16.8194C89.8839 16.4306 89.2938 16.0903 88.753 15.8958C88.1629 15.7014 87.5729 15.5556 86.9828 15.5556C85.5569 15.5556 84.4259 15.9931 83.5409 16.9167C82.6558 17.8403 82.2624 19.0556 82.2624 20.6111C82.2624 22.1181 82.705 23.3333 83.5409 24.1597C84.3768 24.9861 85.5077 25.4236 86.9337 25.4236ZM100.652 12.6875C100.947 12.6875 101.193 12.6875 101.439 12.7361C101.685 12.7847 101.882 12.8333 102.029 12.8819V16.4792C101.832 16.3333 101.586 16.1875 101.193 16.0903C100.8 15.9931 100.406 15.8958 99.8655 15.8958C98.9805 15.8958 98.2429 16.2847 97.6528 17.0139C97.0628 17.7431 96.7186 18.8611 96.7186 20.4167V28H93.1291V12.9306H96.7186V15.3125H96.7678C97.112 14.4861 97.6037 13.8542 98.2429 13.3681C98.9313 12.9306 99.718 12.6875 100.652 12.6875ZM102.226 20.7083C102.226 18.2292 102.963 16.2361 104.34 14.7778C105.766 13.3194 107.733 12.5903 110.241 12.5903C112.601 12.5903 114.469 13.2708 115.797 14.6806C117.124 16.0903 117.813 17.9861 117.813 20.3681C117.813 22.7986 117.075 24.7431 115.698 26.2014C114.273 27.6597 112.355 28.3889 109.896 28.3889C107.536 28.3889 105.668 27.7083 104.291 26.3472C102.914 24.9375 102.226 23.0417 102.226 20.7083ZM105.963 20.5625C105.963 22.1181 106.307 23.3333 107.044 24.1597C107.782 24.9861 108.815 25.4236 110.142 25.4236C111.421 25.4236 112.453 25.0347 113.142 24.1597C113.83 23.3333 114.174 22.1181 114.174 20.4653C114.174 18.8611 113.83 17.6458 113.142 16.7708C112.453 15.9444 111.421 15.5069 110.191 15.5069C108.864 15.5069 107.88 15.9444 107.143 16.8194C106.307 17.7431 105.963 18.9583 105.963 20.5625ZM123.172 16.9167C123.172 17.4028 123.32 17.8403 123.664 18.1319C124.008 18.4236 124.697 18.7639 125.828 19.2014C127.254 19.7847 128.286 20.4167 128.827 21.0972C129.417 21.8264 129.712 22.6528 129.712 23.6736C129.712 25.0833 129.171 26.2014 128.04 27.0764C126.959 27.9514 125.434 28.3403 123.566 28.3403C122.927 28.3403 122.238 28.2431 121.451 28.0972C120.665 27.9514 120.025 27.7569 119.485 27.5139V24.0139C120.124 24.4514 120.861 24.8403 121.599 25.0833C122.336 25.3264 123.025 25.4722 123.664 25.4722C124.451 25.4722 125.09 25.375 125.434 25.1319C125.828 24.8889 126.024 24.5486 126.024 24.0139C126.024 23.5278 125.828 23.1389 125.434 22.75C125.041 22.4097 124.254 22.0208 123.172 21.5833C121.845 21.0486 120.911 20.4167 120.37 19.7361C119.829 19.0556 119.534 18.1806 119.534 17.1111C119.534 15.75 120.075 14.6319 121.156 13.7569C122.238 12.8819 123.664 12.4444 125.385 12.4444C125.926 12.4444 126.516 12.4931 127.155 12.6389C127.794 12.7847 128.384 12.9306 128.827 13.0764V16.5278C128.335 16.2361 127.794 15.9444 127.155 15.7014C126.516 15.4583 125.877 15.3611 125.287 15.3611C124.598 15.3611 124.057 15.5069 123.713 15.75C123.369 16.0903 123.172 16.4306 123.172 16.9167ZM131.236 20.7083C131.236 18.2292 131.974 16.2361 133.351 14.7778C134.777 13.3194 136.743 12.5903 139.251 12.5903C141.611 12.5903 143.48 13.2708 144.807 14.6806C146.135 16.0903 146.823 17.9861 146.823 20.3681C146.823 22.7986 146.086 24.7431 144.709 26.2014C143.283 27.6597 141.366 28.3889 138.907 28.3889C136.547 28.3889 134.678 27.7083 133.302 26.3472C131.974 24.9375 131.236 23.0417 131.236 20.7083ZM134.973 20.5625C134.973 22.1181 135.318 23.3333 136.055 24.1597C136.793 24.9861 137.825 25.4236 139.153 25.4236C140.431 25.4236 141.464 25.0347 142.152 24.1597C142.841 23.3333 143.185 22.1181 143.185 20.4653C143.185 18.8611 142.841 17.6458 142.152 16.7708C141.464 15.9444 140.431 15.5069 139.202 15.5069C137.874 15.5069 136.891 15.9444 136.153 16.8194C135.367 17.7431 134.973 18.9583 134.973 20.5625ZM158.772 15.8472H153.412V28H149.774V15.8472H147.217V12.9306H149.774V10.8403C149.774 9.28472 150.315 7.97222 151.347 6.95139C152.38 5.93056 153.707 5.44444 155.33 5.44444C155.773 5.44444 156.166 5.49306 156.51 5.49306C156.854 5.49306 157.149 5.59028 157.395 5.6875V8.75C157.297 8.70139 157.051 8.60417 156.756 8.50694C156.461 8.40972 156.117 8.36111 155.723 8.36111C154.986 8.36111 154.396 8.60417 154.002 9.04167C153.609 9.47917 153.412 10.2083 153.412 11.0833V12.8819H158.772V9.47917L162.361 8.40972V12.8819H166V15.7986H162.361V22.8472C162.361 23.7708 162.558 24.4028 162.853 24.7917C163.197 25.1806 163.738 25.375 164.476 25.375C164.672 25.375 164.918 25.3264 165.213 25.2292C165.508 25.1319 165.754 25.0347 165.951 24.8889V27.8056C165.705 27.9514 165.361 28.0486 164.82 28.1458C164.279 28.2431 163.787 28.2917 163.246 28.2917C161.722 28.2917 160.591 27.9028 159.854 27.125C159.116 26.3472 158.723 25.1319 158.723 23.5278L158.772 15.8472Z" fill="#6A9FD0"/>
<path d="M16.8164 0H0V16.625H16.8164V0Z" fill="#6A9FD0"/>
<path d="M35.4028 0H18.5865V16.625H35.4028V0Z" fill="#6A9FD0"/>
<path d="M16.8164 18.375H0V35H16.8164V18.375Z" fill="#6A9FD0"/>
<path d="M35.4028 18.375H18.5865V35H35.4028V18.375Z" fill="#6A9FD0"/>
</svg>
