<svg width="171" height="35" viewBox="0 0 171 35" fill="none" xmlns="http://www.w3.org/2000/svg">
<path d="M10.4586 14.7073L17.1004 7.91053L23.7457 14.7109L27.6104 10.7559L17.1004 0L6.59392 10.7523L10.4586 14.7073Z" fill="#6A9FD0"/>
<path d="M7.72939 17.4994L3.86479 13.5445L0 17.4996L3.8646 21.4545L7.72939 17.4994Z" fill="#6A9FD0"/>
<path d="M10.4586 20.2927L17.1004 27.0895L23.7454 20.2894L27.6123 24.2422L27.6104 24.2444L17.1004 35L6.58825 24.2424L10.4586 20.2927Z" fill="#6A9FD0"/>
<path d="M30.3364 21.4564L34.2012 17.5012L30.3366 13.5463L26.4718 17.5014L30.3364 21.4564Z" fill="#6A9FD0"/>
<path d="M21.0204 17.4979H21.0221L17.1004 13.4846L13.1768 17.4999L13.1822 17.5057L17.1004 21.5154L21.0221 17.5021L21.0239 17.4999L21.0204 17.4979Z" fill="#6A9FD0"/>
<path d="M40.226 8.48082H48.6314C50.7176 8.48082 52.2951 9.02872 53.3643 10.1245C54.1917 10.9732 54.6052 12.025 54.6052 13.2798V13.3328C54.6052 13.8631 54.5412 14.3316 54.4123 14.738C54.2838 15.1449 54.112 15.5112 53.8972 15.8382C53.683 16.1655 53.434 16.4527 53.1509 16.6999C52.8675 16.9475 52.5631 17.1598 52.237 17.3362C53.2857 17.7431 54.1112 18.2952 54.713 18.9935C55.3146 19.692 55.6158 20.6598 55.6158 21.8969V21.9497C55.6158 22.7983 55.4564 23.5406 55.1374 24.1772C54.8183 24.8133 54.3613 25.3438 53.7662 25.7681C53.1711 26.1924 52.4556 26.5103 51.6193 26.7226C50.783 26.9347 49.8562 27.0405 48.8392 27.0405H40.226V8.48082ZM47.7911 15.9842C48.6722 15.9842 49.3718 15.8299 49.8897 15.5203C50.4078 15.211 50.6668 14.7114 50.6668 14.0223V13.9692C50.6668 13.3508 50.4421 12.8781 49.9931 12.5508C49.5439 12.2238 48.8961 12.0601 48.0501 12.0601H44.112V15.9842H47.7911ZM48.8535 23.4615C49.7343 23.4615 50.4248 23.2984 50.9261 22.9711C51.4269 22.6441 51.6776 22.1357 51.6776 21.4463V21.3935C51.6776 20.7748 51.4442 20.2844 50.978 19.9217C50.5115 19.5599 49.7603 19.3785 48.7238 19.3785H44.112V23.4618L48.8535 23.4615Z" fill="#6A9FD0"/>
<path d="M60.6217 8.48082H64.612V27.0411H60.6217V8.48082Z" fill="#6A9FD0"/>
<path d="M70.6554 8.48082H74.334L82.8324 19.9087V8.48082H86.7705V27.0411H83.3767L74.5933 15.2422V27.0411H70.6554V8.48082Z" fill="#6A9FD0"/>
<path d="M98.8504 8.34841H102.529L110.302 27.0411H106.131L104.473 22.8785H96.8035L95.1454 27.0411H91.0771L98.8504 8.34841ZM103.048 19.2721L100.638 13.2535L98.2289 19.2721H103.048Z" fill="#6A9FD0"/>
<path d="M114.609 8.48082H118.289L126.787 19.9087V8.48082H130.725V27.0411H127.331L118.548 15.2422V27.0411H114.609V8.48082Z" fill="#6A9FD0"/>
<path d="M145.085 27.359C143.754 27.359 142.52 27.1113 141.379 26.6168C140.239 26.1222 139.255 25.4458 138.426 24.5883C137.596 23.731 136.948 22.719 136.483 21.5524C136.016 20.3856 135.783 19.1394 135.783 17.8136V17.7608C135.783 16.435 136.016 15.1935 136.483 14.0356C136.949 12.8778 137.596 11.8614 138.426 10.9864C139.255 10.1115 140.248 9.42181 141.405 8.91814C142.562 8.41447 143.841 8.16264 145.24 8.16264C146.086 8.16264 146.858 8.23368 147.558 8.37467C148.258 8.51648 148.892 8.71054 149.463 8.95795C150.033 9.20564 150.559 9.50613 151.044 9.85941C151.526 10.2133 151.976 10.6019 152.39 11.0263L149.852 14.0223C149.143 13.3685 148.422 12.8554 147.688 12.4845C146.954 12.1135 146.129 11.9277 145.214 11.9277C144.454 11.9277 143.75 12.0781 143.102 12.3786C142.455 12.6791 141.897 13.0943 141.431 13.6245C140.965 14.1547 140.602 14.7692 140.343 15.4672C140.084 16.1658 139.955 16.9124 139.955 17.7077V17.7605C139.955 18.5559 140.084 19.3075 140.343 20.0141C140.602 20.7215 140.96 21.3399 141.418 21.8701C141.876 22.4003 142.428 22.8204 143.076 23.1298C143.724 23.4394 144.437 23.5936 145.214 23.5936C146.25 23.5936 147.126 23.3993 147.843 23.0104C148.56 22.622 149.273 22.0915 149.981 21.4195L152.52 24.0445C152.054 24.5573 151.569 25.017 151.069 25.4231C150.568 25.83 150.02 26.1789 149.424 26.4708C148.828 26.7622 148.175 26.9836 147.468 27.1334C146.759 27.2835 145.965 27.359 145.085 27.359Z" fill="#6A9FD0"/>
<path d="M157.216 8.48082H170.87V12.1135H161.154V15.8786H169.704V19.5109H161.154V23.4087H171V27.0411H157.216V8.48082Z" fill="#6A9FD0"/>
</svg>
