<svg width="111" height="32" viewBox="0 0 111 32" fill="none" xmlns="http://www.w3.org/2000/svg">
<path d="M68.8622 25.025C62.4118 29.5733 53.0624 32 45.0127 32C33.7257 32 23.5645 28.0064 15.8772 21.3641C15.2732 20.8418 15.8143 20.13 16.5391 20.5368C24.8352 25.1544 35.0931 27.9324 45.6891 27.9324C52.8353 27.9324 60.6965 26.518 67.9249 23.5828C69.0168 23.1391 69.93 24.2669 68.8622 25.025Z" fill="#6A9FD0"/>
<path d="M71.5439 22.0898C70.7225 21.0822 66.0936 21.6138 64.016 21.8495C63.383 21.9234 63.2864 21.3965 63.8565 21.0175C67.5432 18.5353 73.5925 19.2518 74.298 20.0838C75.0034 20.9204 74.1143 26.7214 70.65 29.4901C70.1185 29.9154 69.6111 29.6889 69.8479 29.1249C70.6258 27.2668 72.3701 23.1021 71.5439 22.0898Z" fill="#6A9FD0"/>
<path d="M64.1609 3.49444V1.08161C64.1609 0.716452 64.4508 0.471472 64.7987 0.471472H76.0905C76.4529 0.471472 76.7428 0.721075 76.7428 1.08161V3.14777C76.738 3.49444 76.4336 3.94742 75.8924 4.66387L70.0412 12.6558C72.2155 12.6049 74.5106 12.9146 76.4819 13.9778C76.9264 14.2181 77.0472 14.5694 77.081 14.9161V17.4907C77.081 17.842 76.6752 18.2534 76.25 18.0407C72.7759 16.2981 68.1616 16.1086 64.3204 18.0592C63.929 18.2626 63.5183 17.8558 63.5183 17.5046V15.0594C63.5183 14.6665 63.5231 13.9962 63.9338 13.4L70.7128 4.09996H64.8132C64.4508 4.09996 64.1609 3.85498 64.1609 3.49444Z" fill="#6A9FD0"/>
<path d="M22.9702 18.5492H19.5348C19.2062 18.5261 18.9453 18.2903 18.9212 17.9899V1.12322C18.9212 0.785789 19.2159 0.517695 19.5831 0.517695H22.7866C23.12 0.531553 23.3857 0.776542 23.4099 1.08161V3.28644H23.4727C24.3086 1.15557 25.8789 0.16178 27.9952 0.16178C30.1453 0.16178 31.4886 1.15557 32.4549 3.28644C33.286 1.15557 35.1752 0.16178 37.1997 0.16178C38.6396 0.16178 40.2147 0.730319 41.1762 2.00607C42.2634 3.4251 42.0411 5.48664 42.0411 7.29395L42.0363 17.939C42.0363 18.2765 41.7416 18.5492 41.3744 18.5492H37.9438C37.6007 18.5261 37.3253 18.2626 37.3253 17.939V8.99957C37.3253 8.28774 37.393 6.51278 37.2287 5.83793C36.9726 4.70548 36.2044 4.38654 35.209 4.38654C34.378 4.38654 33.5082 4.9181 33.1555 5.7686C32.8028 6.6191 32.8366 8.04275 32.8366 8.99957V17.939C32.8366 18.2765 32.5419 18.5492 32.1747 18.5492H28.7441C28.3962 18.5261 28.1257 18.2626 28.1257 17.939L28.1208 8.99957C28.1208 7.1183 28.4446 4.34956 26.0045 4.34956C23.5355 4.34956 23.6321 7.04897 23.6321 8.99957V17.939C23.6321 18.2765 23.3374 18.5492 22.9702 18.5492Z" fill="#6A9FD0"/>
<path d="M86.4643 0.16178C91.5618 0.16178 94.3207 4.34956 94.3207 9.67442C94.3207 14.819 91.2719 18.9005 86.4643 18.9005C81.4586 18.9005 78.7335 14.7127 78.7335 9.49415C78.7335 4.24325 81.4924 0.16178 86.4643 0.16178ZM86.4933 3.60538C83.9615 3.60538 83.802 6.90568 83.802 8.96259C83.802 11.0241 83.7682 15.4245 86.4643 15.4245C89.1266 15.4245 89.2522 11.8746 89.2522 9.7114C89.2522 8.28774 89.1894 6.58674 88.7401 5.23704C88.3535 4.06298 87.5853 3.60538 86.4933 3.60538Z" fill="#6A9FD0"/>
<path d="M100.931 18.5492H97.5097C97.1667 18.5261 96.8913 18.2626 96.8913 17.939L96.8864 1.06775C96.9154 0.758052 97.2005 0.517695 97.5484 0.517695H100.733C101.032 0.531553 101.278 0.725698 101.346 0.989168V3.56839H101.409C102.37 1.26188 103.719 0.16178 106.091 0.16178C107.632 0.16178 109.135 0.693342 110.101 2.14936C111 3.49906 111 5.7686 111 7.40026V18.0176C110.961 18.3134 110.676 18.5492 110.338 18.5492H106.893C106.579 18.5261 106.318 18.3042 106.284 18.0176V8.85628C106.284 7.01199 106.506 4.31258 104.134 4.31258C103.298 4.31258 102.53 4.84877 102.148 5.66228C101.665 6.69305 101.602 7.7192 101.602 8.85628V17.939C101.597 18.2765 101.298 18.5492 100.931 18.5492Z" fill="#6A9FD0"/>
<path d="M55.1594 10.4926V9.78073C52.6758 9.78073 50.0522 10.2892 50.0522 13.0903C50.0522 14.5093 50.8204 15.4708 52.1395 15.4708C53.1059 15.4708 53.9707 14.9022 54.5167 13.9778C55.1932 12.8407 55.1594 11.7729 55.1594 10.4926ZM58.6237 18.503C58.3966 18.6971 58.0681 18.711 57.812 18.5815C56.6717 17.6756 56.4688 17.2549 55.8406 16.3906C53.9562 18.2302 52.6227 18.7803 50.1778 18.7803C47.2884 18.7803 45.0368 17.0747 45.0368 13.6588C45.0368 10.9918 46.5492 9.17521 48.6993 8.28774C50.5643 7.50195 53.1687 7.36328 55.1594 7.14604V6.72079C55.1594 5.93962 55.2222 5.01517 54.7438 4.34032C54.3235 3.7348 53.5214 3.48519 52.8159 3.48519C51.5065 3.48519 50.3373 4.12769 50.0522 5.4589C49.9942 5.75473 49.7671 6.04594 49.4579 6.0598L46.124 5.71775C45.8437 5.65766 45.5345 5.44041 45.6118 5.02904C46.38 1.16482 50.028 0 53.2943 0C54.9661 0 57.15 0.425249 58.4691 1.63628C60.1409 3.12928 59.9814 5.12148 59.9814 7.28933V12.4108C59.9814 13.95 60.6482 14.6249 61.2764 15.4569C61.4986 15.7527 61.5469 16.1086 61.2667 16.3305C60.5661 16.8898 59.3195 17.9298 58.6334 18.5122L58.6237 18.503Z" fill="#6A9FD0"/>
<path d="M10.1225 10.4926V9.78073C7.63901 9.78073 5.01536 10.2892 5.01536 13.0903C5.01536 14.5093 5.78361 15.4708 7.10268 15.4708C8.06904 15.4708 8.93392 14.9022 9.47991 13.9778C10.1564 12.8407 10.1225 11.7729 10.1225 10.4926ZM13.5869 18.503C13.3598 18.6971 13.0312 18.711 12.7752 18.5815C11.6349 17.6756 11.4319 17.2549 10.8038 16.3906C8.91942 18.2302 7.58586 18.7803 5.14099 18.7803C2.2516 18.7803 0 17.0747 0 13.6588C0 10.9918 1.51234 9.17521 3.66247 8.28774C5.52753 7.50195 8.13185 7.36328 10.1225 7.14604V6.72079C10.1225 5.93962 10.1853 5.01517 9.707 4.34032C9.28664 3.7348 8.48457 3.48519 7.77913 3.48519C6.46973 3.48519 5.30044 4.12769 5.01536 5.4589C4.95738 5.75473 4.73029 6.04594 4.42106 6.0598L1.08715 5.71775C0.806903 5.65766 0.49767 5.44041 0.574978 5.02904C1.34323 1.16482 4.9912 0 8.25748 0C9.92926 0 12.1132 0.425249 13.4323 1.63628C15.1041 3.12928 14.9446 5.12148 14.9446 7.28933V12.4108C14.9446 13.95 15.6114 14.6249 16.2395 15.4569C16.4618 15.7527 16.5101 16.1086 16.2299 16.3305C15.5293 16.8898 14.2827 17.9298 13.5966 18.5122L13.5869 18.503Z" fill="#6A9FD0"/>
</svg>
