<svg width="193" height="24" viewBox="0 0 193 24" fill="none" xmlns="http://www.w3.org/2000/svg">
<path d="M44.9797 8.87339H28.6601L28.0554 9.33016V23.9959H32.5731V18.4963L33.0043 18.106H44.9803C48.0041 18.106 49.4217 17.2841 49.4217 15.1754V11.8081C49.4212 9.69582 48.0041 8.87339 44.9797 8.87339ZM44.9797 14.2954C44.9797 15.2889 44.3291 15.4952 42.9114 15.4952H33.0538L32.5725 15.0226V11.881L33.0037 11.4824H42.9114C44.3291 11.4824 44.9797 11.6864 44.9797 12.6846V14.2954Z" fill="#6A9FD0"/>
<path d="M57.6598 11.6476L61.5473 17.4011L61.3319 17.9584H52.7348L50.5402 20.6856H63.3373L64.2242 21.2311L66.211 23.9994H71.3811L60.0487 8.68585" fill="#6A9FD0"/>
<path d="M109.068 21.0206V16.9502L109.533 16.5446H118.182V13.9526H104.474V23.9988H124.694V21.4192H109.553" fill="#6A9FD0"/>
<path d="M124.908 8.87339H104.474V11.7234H124.908V8.87339Z" fill="#6A9FD0"/>
<path d="M81.6827 11.5723H98.145C97.8912 9.45773 96.5923 8.87103 93.2973 8.87103H81.5076C77.7895 8.87103 76.6035 9.60412 76.6035 12.4465V20.421C76.6035 23.2663 77.7895 23.9994 81.5076 23.9994H93.2973C96.6406 23.9994 97.9209 23.3651 98.0082 21.1717H81.6827L81.1986 20.7114V11.8804" fill="#6A9FD0"/>
<path d="M17.0702 14.7662H5.09425L4.74159 14.3741V11.7863L5.09251 11.5124H21.237L21.4575 10.9674C20.9076 9.53827 19.4836 8.87162 16.8392 8.87162H5.62441C1.90866 8.87162 0.720896 9.6047 0.720896 12.4471V14.119C0.720896 16.9649 1.90866 17.6968 5.62441 17.6968H17.5736L17.949 18.0295V20.7349L17.6429 21.157H3.97458V21.1441H0.394421C0.394421 21.1441 -0.015272 21.3516 0.000440677 21.4486C0.305965 23.4368 1.64678 24 4.85682 24H17.0702C20.7854 24 22.0086 23.2669 22.0086 20.4216V18.3388C22.0086 15.4982 20.7854 14.7662 17.0702 14.7662Z" fill="#6A9FD0"/>
<path d="M137.762 8.81107H131.04L130.675 9.51241L138.14 15.0096C139.554 14.1825 141.093 13.3442 142.767 12.517" fill="#6A9FD0"/>
<path d="M143.785 19.1665L150.347 24H157.151L157.432 23.3598L147.635 16.1154C146.333 17.0801 145.048 18.0989 143.785 19.1665Z" fill="#6A9FD0"/>
<path d="M136.761 23.9888H130.679L130.166 23.1758C134.301 19.1424 152.797 1.85239 193 0C193 0 159.255 1.14988 136.761 23.9888Z" fill="#6A9FD0"/>
</svg>
