<svg width="105" height="32" viewBox="0 0 105 32" fill="none" xmlns="http://www.w3.org/2000/svg">
<path d="M13.1142 11.3997V14.8238H21.5602C21.3016 16.7447 20.6409 18.1505 19.6354 19.1388C18.4001 20.3358 16.4754 21.6442 13.1142 21.6442C7.9145 21.6442 3.84952 17.5798 3.84952 12.5411C3.84952 7.50239 7.9145 3.43802 13.1142 3.43802C15.9152 3.43802 17.9692 4.50979 19.4774 5.88778L21.9624 3.47977C19.8653 1.50326 17.0499 0 13.1142 0C5.98974 0 0 5.62331 0 12.5272C0 19.4311 5.98974 25.0544 13.1142 25.0544C16.9637 25.0544 19.8653 23.8295 22.1347 21.5468C24.4617 19.2919 25.1943 16.1044 25.1943 13.5433C25.1943 12.7499 25.1368 12.0122 25.0075 11.3997H13.1142Z" fill="#6A9FD0"/>
<path d="M35.7517 8.61592C31.1409 8.61592 27.3776 12.0122 27.3776 16.7029C27.3776 21.3519 31.1409 24.7899 35.7517 24.7899C40.3625 24.7899 44.1259 21.3658 44.1259 16.7029C44.1259 12.0122 40.3625 8.61592 35.7517 8.61592ZM35.7517 21.6024C33.2237 21.6024 31.0404 19.5842 31.0404 16.7029C31.0404 13.7938 33.2237 11.8034 35.7517 11.8034C38.2798 11.8034 40.4631 13.7938 40.4631 16.7029C40.4631 19.5842 38.2798 21.6024 35.7517 21.6024Z" fill="#6A9FD0"/>
<path d="M76.8037 10.4254H76.6744C75.8557 9.4789 74.2757 8.61592 72.2791 8.61592C68.1135 8.61592 64.4795 12.1375 64.4795 16.7029C64.4795 21.2405 68.1135 24.7899 72.2791 24.7899C74.2757 24.7899 75.8557 23.9269 76.6744 22.9526H76.8037V24.08C76.8037 27.1701 75.0944 28.8264 72.3509 28.8264C70.1101 28.8264 68.7168 27.2675 68.1423 25.9452L64.9535 27.2258C65.8728 29.3693 68.3003 32 72.3509 32C76.6457 32 80.2798 29.5502 80.2798 23.5789V9.03349H76.8037V10.4254ZM72.5951 21.6024C70.067 21.6024 68.1423 19.5146 68.1423 16.7029C68.1423 13.8495 70.067 11.8034 72.5951 11.8034C75.0944 11.8034 77.0479 13.8913 77.0479 16.7308C77.0622 19.5563 75.0944 21.6024 72.5951 21.6024Z" fill="#6A9FD0"/>
<path d="M54.4248 8.61592C49.814 8.61592 46.0506 12.0122 46.0506 16.7029C46.0506 21.3519 49.814 24.7899 54.4248 24.7899C59.0356 24.7899 62.7989 21.3658 62.7989 16.7029C62.7989 12.0122 59.0356 8.61592 54.4248 8.61592ZM54.4248 21.6024C51.8967 21.6024 49.7134 19.5842 49.7134 16.7029C49.7134 13.7938 51.8967 11.8034 54.4248 11.8034C56.9528 11.8034 59.1361 13.7938 59.1361 16.7029C59.1361 19.5842 56.9528 21.6024 54.4248 21.6024Z" fill="#6A9FD0"/>
<path d="M83.1525 0.334058H86.7579V24.7899H83.1525V0.334058Z" fill="#6A9FD0"/>
<path d="M97.8899 21.6024C96.0226 21.6024 94.7011 20.7812 93.8393 19.1527L105 14.6846L104.627 13.766C103.937 11.9565 101.811 8.61592 97.4877 8.61592C93.1929 8.61592 89.6163 11.8869 89.6163 16.7029C89.6163 21.2405 93.1498 24.7899 97.8899 24.7899C101.711 24.7899 103.923 22.5211 104.842 21.2127L101.998 19.3754C101.05 20.7116 99.7572 21.6024 97.8899 21.6024ZM97.6313 11.6503C99.1108 11.6503 100.375 12.388 100.791 13.4319L93.2503 16.4524C93.2503 13.0561 95.7353 11.6503 97.6313 11.6503Z" fill="#6A9FD0"/>
</svg>
