<svg width="213" height="16" viewBox="0 0 213 16" fill="none" xmlns="http://www.w3.org/2000/svg">
<path fill-rule="evenodd" clip-rule="evenodd" d="M13.1298 5.91382C13.7785 5.43326 13.9412 4.63513 13.9412 3.99625C13.9412 3.19719 13.7785 2.55925 13.2925 1.91944C12.9681 1.2815 12.3204 0.801874 11.509 0.482436C10.6977 0.162998 9.40222 0.00374707 7.61879 0.00374707H0V0.323185C0.648691 0.323185 1.13569 0.482436 1.45908 0.642623C1.78343 0.801874 1.94607 0.962061 1.94607 1.12225C2.10777 1.28244 2.27042 1.92037 2.27042 2.71944V12.9405C2.27042 13.8988 2.10777 14.3785 1.94607 14.6979C1.94607 14.8571 1.78343 15.0173 1.45908 15.1766C1.13569 15.3368 0.648691 15.3368 0 15.3368V15.8164H8.10484C10.3743 15.8164 12.1577 15.3368 13.2925 14.3794C14.2646 13.5803 14.7515 12.622 14.7515 11.3443C14.7515 10.2267 14.2646 9.42764 13.4542 8.63045C12.8055 8.14988 11.6707 7.83045 10.2126 7.35269C11.6717 7.03138 12.6438 6.55269 13.1298 5.91382ZM5.83632 0.801874C6.97105 0.801874 7.94409 0.962061 8.43013 1.28244C8.91618 1.44169 9.40317 1.76112 9.56487 2.23888C9.88921 2.71944 10.0519 3.19719 10.0519 3.99625C10.0519 4.63513 9.88921 5.27401 9.56487 5.59344C9.23957 6.07307 8.91523 6.39251 8.42918 6.71194C7.78049 7.03138 6.97105 7.03138 5.83632 7.03138V0.801874ZM8.59088 8.31007C9.23957 8.62951 9.72657 8.94895 10.0509 9.58689C10.3753 10.2248 10.537 10.8646 10.537 11.5035C10.537 12.1433 10.3753 12.7813 10.0509 13.2609C9.72657 13.7396 9.40222 14.2192 8.91523 14.5386C8.26749 14.6979 7.78049 14.8571 7.1318 14.8571C6.80745 14.8571 6.48406 14.8571 6.15971 14.5386C5.99707 14.3785 5.83537 14.0581 5.83537 13.5803V7.9897C7.13275 7.9897 7.94409 8.14895 8.59088 8.31007Z" fill="#6A9FD0"/>
<path fill-rule="evenodd" clip-rule="evenodd" d="M20.9788 7.24028C21.7283 7.24028 22.1953 7.24028 22.3827 7.33302C22.8507 7.42576 23.1313 7.70211 23.4119 7.97752C23.6925 8.2548 23.8798 8.71569 23.973 9.36112H24.2536V6.68665H16.4865V6.87119H16.8612C17.1428 6.87119 17.3301 6.96393 17.5166 7.14754C17.6107 7.14754 17.7039 7.33208 17.7972 7.42482C17.7972 7.51663 17.7972 7.79391 17.7972 8.2548V14.2464C17.7972 14.7082 17.7972 14.9845 17.703 15.0773C17.703 15.2609 17.6098 15.3536 17.4224 15.4464C17.3292 15.5391 17.0476 15.5391 16.8603 15.5391H16.4855V15.8155H24.4391L24.908 12.8656H24.6274C24.4401 13.6956 24.0653 14.341 23.5041 14.7101C23.0362 15.0792 22.2876 15.2628 21.4458 15.2628H20.8846C20.604 15.2628 20.4167 15.2628 20.3225 15.171C20.2293 15.0782 20.1351 14.9864 20.1351 14.8946C20.0419 14.8009 20.0419 14.5246 20.0419 13.9719V11.3902C20.5099 11.3902 20.7905 11.4829 21.072 11.5747C21.2594 11.6674 21.4468 11.9438 21.6332 12.2192C21.8196 12.5892 21.9138 13.0501 22.007 13.511H22.2876V8.80656H22.007C21.9138 9.45199 21.7264 10.0047 21.4458 10.3747C21.2584 10.7438 20.7905 10.9283 20.2293 10.9283H20.0419V7.24028H20.9788Z" fill="#6A9FD0"/>
<path fill-rule="evenodd" clip-rule="evenodd" d="M29.8683 11.6656L32.8626 15.8145H35.7636V15.5382C35.483 15.5382 35.2957 15.4454 35.1092 15.2609C35.016 15.1691 34.7345 14.9845 34.4548 14.6164L32.3033 11.481C32.8645 11.3883 33.2383 11.1119 33.6131 10.8365C34.081 10.4674 34.3616 9.91475 34.3616 9.17658C34.3616 8.62389 34.1742 8.163 33.8004 7.79391C33.5198 7.33302 33.0519 7.05667 32.5839 6.87213C32.0218 6.77939 31.18 6.68759 30.1508 6.68759H25.8468V6.87213C26.2216 6.87213 26.5012 6.96487 26.6886 7.05667C26.876 7.14848 26.9692 7.24028 26.9692 7.33302C27.0624 7.42576 27.0624 7.79391 27.0624 8.2548V14.2464C27.0624 14.7082 27.0624 14.9845 26.9692 15.1691C26.9692 15.2609 26.875 15.3527 26.6886 15.4454C26.5022 15.5382 26.2206 15.5382 25.8468 15.5382V15.8145H30.5256V15.5382C30.1508 15.5382 29.8712 15.5382 29.6838 15.4454C29.4964 15.3527 29.4032 15.2609 29.4032 15.1691C29.31 14.9845 29.2158 14.7082 29.2158 14.2464V11.6656H29.8683ZM29.9616 7.14754C30.7101 7.14754 31.2713 7.33208 31.5519 7.70117C31.9266 7.97752 32.114 8.53115 32.114 9.17564C32.114 9.72927 32.0199 10.0984 31.8325 10.3747C31.6451 10.6511 31.3645 10.8356 31.0839 11.0192C30.7092 11.1119 30.2421 11.2037 29.68 11.2037H29.212V7.14754H29.9616Z" fill="#6A9FD0"/>
<path fill-rule="evenodd" clip-rule="evenodd" d="M44.1852 8.06932C44.8406 7.51569 45.2153 7.14754 45.4017 7.05574C45.5891 6.963 45.8697 6.963 46.1503 6.87119V6.68665H42.5949V6.87119C42.9696 6.96393 43.2493 6.96393 43.3434 7.05574C43.5308 7.14754 43.624 7.23934 43.624 7.42482C43.624 7.70117 43.3434 7.97752 42.8755 8.34567L39.5064 11.1119V8.2548C39.5064 7.79391 39.5064 7.51663 39.5064 7.33302C39.5997 7.24028 39.6938 7.14848 39.787 7.05667C39.9744 6.96393 40.255 6.87213 40.5366 6.87213V6.68665H35.951V6.87119H36.2326C36.5131 6.87119 36.7005 6.96393 36.8869 7.05574C36.9802 7.14754 37.1675 7.23934 37.1675 7.33208C37.2617 7.51569 37.2617 7.79297 37.2617 8.25386V14.2454C37.2617 14.7073 37.2617 14.9836 37.1675 15.0763C37.0743 15.26 36.9802 15.3527 36.8869 15.4454C36.6996 15.5382 36.5122 15.5382 36.2326 15.5382H35.951V15.8145H40.6298V15.5382C40.255 15.5382 39.9744 15.5382 39.8803 15.4454C39.6938 15.3527 39.5997 15.2609 39.5064 15.1691C39.5064 14.9845 39.5064 14.7082 39.5064 14.2464V11.7583L39.787 11.481L41.9395 14.0637C42.3133 14.6164 42.5939 14.9845 42.5939 15.17C42.5939 15.2618 42.4997 15.3536 42.4065 15.4464C42.3124 15.4464 42.1259 15.5391 41.8453 15.5391V15.8155H46.6173V15.5391C46.3367 15.5391 46.1493 15.4464 45.8688 15.3546C45.494 15.171 45.1202 14.8009 44.6522 14.1564L41.4706 10.192L44.1852 8.06932Z" fill="#6A9FD0"/>
<path fill-rule="evenodd" clip-rule="evenodd" d="M52.8883 6.50211C52.7942 6.77845 52.7009 6.87119 52.6068 6.963C52.6068 7.05574 52.5136 7.05574 52.3271 7.05574C52.2339 7.05574 52.0465 7.05574 51.765 6.87119C51.3912 6.77845 51.2038 6.68665 50.9232 6.59485C50.6426 6.50211 50.362 6.50211 50.0814 6.50211C49.2397 6.50211 48.5843 6.77845 48.0222 7.23934C47.46 7.79297 47.2727 8.34567 47.2727 9.08384C47.2727 9.54473 47.3668 9.91382 47.5533 10.282C47.7406 10.6511 48.0212 10.9274 48.396 11.2037C48.7707 11.4801 49.3319 11.8492 50.1737 12.2173C50.8281 12.5874 51.2029 12.771 51.4835 12.9555C51.6708 13.1391 51.8582 13.3246 51.9514 13.5091C52.0456 13.7855 52.1388 13.9691 52.1388 14.1536C52.1388 14.5227 51.9514 14.7981 51.6708 15.0754C51.3912 15.3518 51.0164 15.5363 50.4543 15.5363C49.7999 15.5363 49.2378 15.259 48.5834 14.7981C48.0212 14.2445 47.6474 13.5082 47.46 12.5864H47.2727V15.9981H47.46C47.5542 15.8136 47.6474 15.6281 47.7416 15.5372C47.929 15.4445 48.0212 15.4445 48.2096 15.4445C48.3037 15.4445 48.4892 15.4445 48.6775 15.5372C49.0523 15.7218 49.4261 15.8136 49.7067 15.9063C49.8941 15.9991 50.1747 15.9991 50.5485 15.9991C51.3912 15.9991 52.233 15.7227 52.7942 15.1691C53.3553 14.6155 53.7301 13.97 53.7301 13.2328C53.7301 12.5883 53.5427 12.0347 53.1689 11.5738C52.7942 11.2047 52.0465 10.652 50.9232 10.0993C50.1747 9.72927 49.7067 9.45386 49.5193 9.36112C49.1455 9.17658 48.9581 8.90023 48.8649 8.71663C48.7717 8.53208 48.6775 8.44028 48.6775 8.163C48.6775 7.88665 48.8649 7.6103 49.0523 7.33302C49.3329 7.14848 49.7067 6.96393 50.1756 6.96393C50.83 6.96393 51.3921 7.24028 51.8601 7.70117C52.4213 8.16206 52.7019 8.71569 52.8893 9.54567H53.1699L53.0747 6.50211H52.8883Z" fill="#6A9FD0"/>
<path fill-rule="evenodd" clip-rule="evenodd" d="M61.3099 11.3883V14.2464C61.3099 14.7082 61.3099 14.9845 61.3099 15.0773C61.2157 15.2609 61.1225 15.3536 61.0293 15.4464C60.8419 15.5391 60.6545 15.5391 60.374 15.5391H60.0934V15.8155H64.8653V15.5391H64.5847C64.3032 15.5391 64.1168 15.5391 63.9303 15.4464C63.8362 15.3536 63.743 15.2618 63.6488 15.0773C63.5556 14.9845 63.5556 14.7082 63.5556 14.2464V8.2548C63.5556 7.79391 63.5556 7.51663 63.6488 7.42482C63.743 7.24028 63.8362 7.14754 63.9303 7.05574C64.1177 6.963 64.3041 6.87119 64.5847 6.87119H64.8653V6.68665H60.0934V6.87119H60.374C60.6545 6.87119 60.8419 6.96393 60.9351 7.05574C61.1225 7.14754 61.2157 7.23934 61.3099 7.33208C61.3099 7.51569 61.3099 7.79297 61.3099 8.25386V10.8356H58.035V8.2548C58.035 7.79391 58.1283 7.51663 58.1283 7.42482C58.2224 7.24028 58.3156 7.14754 58.4089 7.05574C58.5962 6.963 58.7836 6.87119 59.0633 6.87119H59.3438V6.68665H54.5719V6.87119H54.8525C55.1331 6.87119 55.3204 6.96393 55.5078 7.05574C55.601 7.14754 55.6952 7.23934 55.7875 7.33208C55.8807 7.51569 55.8807 7.79297 55.8807 8.25386V14.2454C55.8807 14.7073 55.8807 14.9836 55.7875 15.0763C55.6942 15.26 55.6001 15.3527 55.5078 15.4454C55.3204 15.5382 55.1331 15.5382 54.8525 15.5382H54.5719V15.8145H59.3438V15.5382H59.0633C58.7827 15.5382 58.5953 15.5382 58.5021 15.4454C58.3147 15.3527 58.2215 15.2609 58.1273 15.0763C58.1273 14.9836 58.0341 14.7073 58.0341 14.2454V11.3874L61.3099 11.3883Z" fill="#6A9FD0"/>
<path fill-rule="evenodd" clip-rule="evenodd" d="M69.9179 15.5382C69.6373 15.5382 69.4499 15.5382 69.2635 15.4454C69.1693 15.3527 69.0761 15.2609 68.9829 15.0763C68.9829 14.9836 68.8897 14.7073 68.8897 14.2454V8.2548C68.8897 7.79391 68.9829 7.51663 68.9829 7.42482C69.0771 7.24028 69.1703 7.14754 69.2635 7.05574C69.4509 6.963 69.6373 6.87119 69.9179 6.87119H70.1985V6.68665H65.4265V6.87119H65.7071C65.9877 6.87119 66.1751 6.96393 66.3625 7.05574C66.4557 7.14754 66.5489 7.23934 66.6431 7.33208C66.6431 7.51569 66.7363 7.79297 66.7363 8.25386V14.2454C66.7363 14.7073 66.6431 14.9836 66.6431 15.0763C66.5489 15.26 66.4557 15.3527 66.3625 15.4454C66.1751 15.5382 65.9877 15.5382 65.7071 15.5382H65.4265V15.8145H70.1985V15.5382H69.9179Z" fill="#6A9FD0"/>
<path fill-rule="evenodd" clip-rule="evenodd" d="M74.8772 11.6656L77.8715 15.8145H80.7725V15.5382C80.4919 15.5382 80.3046 15.4454 80.1181 15.2609C80.024 15.1691 79.8375 14.9845 79.557 14.6164L77.3113 11.481C77.8724 11.3883 78.3404 11.1119 78.621 10.8365C79.0899 10.4674 79.3696 9.91475 79.3696 9.17658C79.3696 8.62389 79.1822 8.163 78.9016 7.79391C78.5269 7.33302 78.153 7.05667 77.5919 6.87213C77.1239 6.77939 76.2821 6.68759 75.1588 6.68759H70.8548V6.87213C71.2295 6.87213 71.6034 6.96487 71.6975 7.05667C71.8839 7.14848 71.9781 7.24028 72.0713 7.33302C72.0713 7.42576 72.1655 7.79391 72.1655 8.2548V14.2464C72.1655 14.7082 72.0713 14.9845 72.0713 15.1691C71.9781 15.2609 71.8839 15.3527 71.6975 15.4454C71.6034 15.5382 71.3228 15.5382 70.8548 15.5382V15.8145H75.5335V15.5382C75.1588 15.5382 74.8791 15.5382 74.6918 15.4454C74.5986 15.3527 74.4112 15.2609 74.4112 15.1691C74.317 14.9845 74.317 14.7082 74.317 14.2464V11.6656H74.8772ZM74.9705 7.14754C75.719 7.14754 76.2812 7.33208 76.655 7.70117C76.9356 7.97752 77.1229 8.53115 77.1229 9.17564C77.1229 9.72927 77.0297 10.0984 76.8423 10.3747C76.655 10.6511 76.3744 10.8356 76.0938 11.0192C75.8132 11.1119 75.3443 11.2037 74.6899 11.2037H74.3151V7.14754H74.9705Z" fill="#6A9FD0"/>
<path fill-rule="evenodd" clip-rule="evenodd" d="M85.4513 7.24028C86.1057 7.24028 86.5737 7.24028 86.8543 7.33302C87.3232 7.42576 87.6038 7.70211 87.8834 7.97752C88.0708 8.2548 88.2582 8.71569 88.4455 9.36112H88.6329V6.68665H80.9599V6.87119H81.2405C81.5211 6.87119 81.8017 6.96393 81.9891 7.14754C82.0823 7.14754 82.1765 7.33208 82.1765 7.42482C82.2697 7.51663 82.2697 7.79391 82.2697 8.2548V14.2464C82.2697 14.7082 82.1765 14.9845 82.1765 15.0773C82.0823 15.2609 81.9891 15.3536 81.8959 15.4464C81.7085 15.5391 81.5211 15.5391 81.2415 15.5391H80.9609V15.8155H88.9145L89.3824 12.8656H89.1019C88.8213 13.6956 88.4475 14.341 87.9795 14.7101C87.4173 15.0792 86.7629 15.2628 85.9202 15.2628H85.359C85.0784 15.2628 84.8911 15.2628 84.7978 15.171C84.7046 15.0782 84.6105 14.9864 84.5173 14.8946C84.5173 14.8009 84.424 14.5246 84.424 13.9719V11.3902C84.892 11.3902 85.2658 11.4829 85.4532 11.5747C85.7338 11.6674 85.9212 11.9438 86.1076 12.2192C86.295 12.5892 86.3882 13.0501 86.3882 13.511H86.6688V8.80656H86.3882C86.3882 9.45199 86.2008 10.0047 85.9202 10.3747C85.6396 10.7438 85.2658 10.9283 84.6105 10.9283H84.424V7.24028H85.4513Z" fill="#6A9FD0"/>
<path fill-rule="evenodd" clip-rule="evenodd" d="M106.698 8.14707V13.0998C106.698 13.8998 106.698 14.3775 106.536 14.5377C106.536 14.8571 106.212 15.0173 106.05 15.1766C105.888 15.3368 105.401 15.3368 104.915 15.3368H104.428V15.8164H112.86V15.3368H112.21C111.886 15.3368 111.4 15.3368 111.239 15.1766C110.914 15.0173 110.751 14.8571 110.59 14.5377C110.59 14.3775 110.59 13.8988 110.59 13.0998V2.71569C110.59 1.91569 110.59 1.43794 110.59 1.27869C110.751 0.958314 110.914 0.798126 111.077 0.638876C111.401 0.477752 111.725 0.318501 112.21 0.318501H112.86V0H104.428V0.319438H104.915C105.401 0.319438 105.725 0.478689 106.05 0.639813C106.374 0.799063 106.536 0.959251 106.536 1.1185C106.698 1.43888 106.698 1.91756 106.698 2.71663V7.1897H101.024V2.71569C101.024 1.91569 101.024 1.43794 101.185 1.27869C101.348 0.958314 101.51 0.798126 101.672 0.638876C101.997 0.477752 102.321 0.318501 102.807 0.318501H103.293V0H94.8621V0.319438H95.5098C95.8342 0.319438 96.3212 0.478689 96.4829 0.639813C96.8072 0.799063 96.9699 0.959251 97.1315 1.1185C97.1315 1.43888 97.1315 1.91756 97.1315 2.71663V13.1007C97.1315 13.9007 97.1315 14.3785 97.1315 14.5386C96.9699 14.8581 96.8072 15.0183 96.6455 15.1775C96.3212 15.3377 95.9968 15.3377 95.5098 15.3377H94.8621V15.8173H103.293V15.3377H102.807C102.321 15.3377 101.997 15.3377 101.672 15.1775C101.51 15.0183 101.185 14.8581 101.185 14.5386C101.024 14.3785 101.024 13.8998 101.024 13.1007V8.14707H106.698Z" fill="#6A9FD0"/>
<path fill-rule="evenodd" clip-rule="evenodd" d="M120.683 14.34C120.777 14.6164 120.87 14.8 120.87 14.8C120.87 14.8937 120.87 14.9845 120.87 15.0773C120.87 15.2609 120.87 15.3536 120.776 15.4464C120.589 15.5391 120.402 15.5391 120.028 15.5391H119.841V15.8155H124.239V15.5391C123.958 15.5391 123.771 15.4464 123.584 15.2618C123.397 15.17 123.116 14.7091 122.836 13.971L119.467 6.50304H119.373L116.099 13.7864C115.817 14.4309 115.537 14.8937 115.256 15.17C115.069 15.3536 114.788 15.5391 114.507 15.5391V15.8155H117.502V15.5391C117.034 15.5391 116.753 15.4464 116.659 15.3546C116.472 15.2618 116.284 15.0782 116.284 14.8009C116.284 14.6173 116.378 14.341 116.471 14.0646L116.939 13.2337H120.12L120.683 14.34ZM117.128 12.6801L118.532 9.63747L119.936 12.6801H117.128Z" fill="#6A9FD0"/>
<path fill-rule="evenodd" clip-rule="evenodd" d="M124.988 6.68665V9.17564H125.175C125.269 8.43934 125.55 7.97752 125.924 7.60937C126.205 7.33208 126.672 7.23934 127.327 7.23934H127.982V14.2454C127.982 14.7073 127.982 14.9836 127.888 15.0763C127.794 15.26 127.701 15.3527 127.608 15.4454C127.42 15.5382 127.233 15.5382 126.953 15.5382H126.672V15.8145H131.445V15.5382H131.164C130.977 15.5382 130.696 15.5382 130.602 15.4454C130.415 15.3527 130.321 15.2609 130.321 15.0763C130.228 14.9836 130.228 14.7073 130.228 14.2454V7.24028H130.883C131.35 7.24028 131.63 7.24028 131.818 7.33302C132.098 7.51663 132.379 7.70211 132.566 7.88665C132.659 8.163 132.847 8.62389 133.033 9.17658H133.22V6.68665H124.988Z" fill="#6A9FD0"/>
<path fill-rule="evenodd" clip-rule="evenodd" d="M140.895 11.3883V14.2464C140.895 14.7082 140.801 14.9845 140.801 15.0773C140.707 15.2609 140.614 15.3536 140.521 15.4464C140.333 15.5391 140.146 15.5391 139.866 15.5391H139.585V15.8155H144.358V15.5391H144.077C143.796 15.5391 143.609 15.5391 143.423 15.4464C143.328 15.3536 143.235 15.2618 143.142 15.0773C143.142 14.9845 143.048 14.7082 143.048 14.2464V8.2548C143.048 7.79391 143.142 7.51663 143.142 7.42482C143.235 7.24028 143.328 7.14754 143.423 7.05574C143.609 6.963 143.797 6.87119 144.077 6.87119H144.358V6.68665H139.585V6.87119H139.866C140.147 6.87119 140.333 6.96393 140.521 7.05574C140.614 7.14754 140.707 7.23934 140.801 7.33208C140.801 7.51569 140.895 7.79297 140.895 8.25386V10.8356H137.621V8.2548C137.621 7.79391 137.621 7.51663 137.621 7.42482C137.715 7.24028 137.808 7.14754 137.901 7.05574C138.089 6.963 138.276 6.87119 138.556 6.87119H138.837V6.68665H134.064V6.87119H134.345C134.625 6.87119 134.813 6.96393 134.999 7.05574C135.093 7.14754 135.187 7.23934 135.28 7.33208C135.374 7.51569 135.374 7.79297 135.374 8.25386V14.2454C135.374 14.7073 135.374 14.9836 135.28 15.0763C135.187 15.26 135.093 15.3527 134.999 15.4454C134.813 15.5382 134.624 15.5382 134.345 15.5382H134.064V15.8145H138.837V15.5382H138.556C138.275 15.5382 138.089 15.5382 137.993 15.4454C137.808 15.3527 137.714 15.2609 137.62 15.0763C137.62 14.9836 137.62 14.7073 137.62 14.2454V11.3874L140.895 11.3883Z" fill="#6A9FD0"/>
<path fill-rule="evenodd" clip-rule="evenodd" d="M150.908 14.34C151.002 14.6164 151.095 14.8 151.095 14.8C151.189 14.8937 151.189 14.9845 151.189 15.0773C151.189 15.2609 151.095 15.3536 151.002 15.4464C150.908 15.5391 150.628 15.5391 150.254 15.5391H150.066V15.8155H154.559V15.5391C154.278 15.5391 154.091 15.4464 153.904 15.2618C153.717 15.17 153.436 14.7091 153.155 13.971L149.787 6.50304H149.693L146.325 13.7864C146.044 14.4309 145.762 14.8937 145.575 15.17C145.39 15.3536 145.108 15.5391 144.733 15.5391V15.8155H147.821V15.5391C147.354 15.5391 147.073 15.4464 146.886 15.3546C146.699 15.2618 146.605 15.0782 146.605 14.8009C146.605 14.6173 146.699 14.341 146.792 14.0646L147.166 13.2337H150.441L150.908 14.34ZM147.446 12.6801L148.849 9.63747L150.16 12.6801H147.446Z" fill="#6A9FD0"/>
<path fill-rule="evenodd" clip-rule="evenodd" d="M166.161 6.68665V6.87119C166.536 6.96393 166.722 6.96393 166.909 7.05574C167.003 7.14754 167.096 7.33208 167.096 7.51569C167.096 7.70023 167.002 7.79297 167.002 7.97658C167.002 8.06932 166.908 8.34567 166.721 8.80656L165.224 12.6801L163.54 8.34567C163.352 7.79297 163.259 7.51569 163.259 7.42482C163.259 7.33208 163.259 7.24028 163.352 7.14754C163.352 7.05574 163.446 7.05574 163.54 6.96393C163.633 6.96393 163.914 6.87119 164.194 6.87119V6.68665H159.796V6.87119C160.076 6.87119 160.264 6.96393 160.45 7.05574C160.544 7.14754 160.731 7.23934 160.826 7.42482C160.919 7.60937 161.106 7.97752 161.293 8.43934L161.668 9.45293L160.171 12.8646L158.393 8.43934C158.207 7.88571 158.018 7.51663 158.018 7.42482C158.018 7.24028 158.112 7.14754 158.206 7.05574C158.299 6.963 158.486 6.963 158.86 6.87119V6.68665H154.837V6.87119C155.117 6.96393 155.305 7.05574 155.491 7.14754C155.585 7.33208 155.772 7.79297 156.145 8.53115L159.14 16H159.42L161.946 10.0993L164.192 16H164.474L167.374 8.44028C167.654 7.79485 167.749 7.51756 167.749 7.42576C167.843 7.24122 168.029 7.14848 168.123 7.05667C168.217 6.96393 168.404 6.96393 168.591 6.87213V6.68665H166.161Z" fill="#6A9FD0"/>
<path fill-rule="evenodd" clip-rule="evenodd" d="M174.956 14.34C175.051 14.6164 175.144 14.8 175.144 14.8C175.237 14.8937 175.237 14.9845 175.237 15.0773C175.237 15.2609 175.144 15.3536 175.051 15.4464C174.957 15.5391 174.676 15.5391 174.302 15.5391H174.115V15.8155H178.607V15.5391C178.326 15.5391 178.046 15.4464 177.953 15.2618C177.765 15.17 177.485 14.7091 177.204 13.971L173.835 6.50304H173.742L170.373 13.7864C170.092 14.4309 169.812 14.8937 169.624 15.17C169.438 15.3536 169.156 15.5391 168.782 15.5391V15.8155H171.87V15.5391C171.402 15.5391 171.121 15.4464 170.934 15.3546C170.748 15.2618 170.653 15.0782 170.653 14.8009C170.653 14.6173 170.748 14.341 170.841 14.0646L171.215 13.2337H174.489L174.956 14.34ZM171.494 12.6801L172.898 9.63747L174.208 12.6801H171.494Z" fill="#6A9FD0"/>
<path fill-rule="evenodd" clip-rule="evenodd" d="M185.905 6.68665V6.87119C186.28 6.96393 186.56 7.05574 186.747 7.14754C186.841 7.24028 186.934 7.33208 186.934 7.42482C186.934 7.60937 186.654 8.06932 186.28 8.80749L184.596 11.481L182.911 8.53115C182.536 7.88665 182.35 7.42482 182.35 7.24028C182.35 7.14754 182.443 7.14754 182.536 7.05667C182.63 6.96393 182.817 6.87213 183.097 6.87213H183.285V6.68665H178.887V6.87119C179.167 6.87119 179.448 6.96393 179.635 7.14754C179.729 7.24028 180.103 7.70117 180.478 8.53115L182.723 12.4037V14.2473C182.723 14.7091 182.629 14.9855 182.629 15.0782C182.535 15.2618 182.442 15.3546 182.349 15.4473C182.161 15.54 181.974 15.54 181.694 15.54H181.226V15.8164H186.372V15.54H185.905C185.625 15.54 185.437 15.54 185.251 15.4473C185.156 15.3546 185.063 15.2628 184.969 15.0782C184.969 14.9855 184.876 14.7091 184.876 14.2473V12.0356L186.934 8.71663C187.401 7.88665 187.776 7.33302 187.964 7.14848C188.15 7.05667 188.431 6.96487 188.712 6.87213V6.68665H185.905Z" fill="#6A9FD0"/>
<path fill-rule="evenodd" clip-rule="evenodd" d="M196.557 15.6796C196.428 15.6796 196.299 15.6796 196.169 15.6159C196.039 15.5522 195.975 15.4876 195.975 15.3611C195.91 15.2974 195.911 15.1063 195.911 14.7869V10.6407C195.911 10.3213 195.91 10.1302 195.975 10.0674C195.975 9.93911 196.039 9.87541 196.169 9.81265C196.234 9.74895 196.428 9.68431 196.557 9.68431H196.816V9.55691H193.449V9.68431H193.708C193.838 9.68431 194.032 9.74801 194.097 9.81265C194.226 9.87541 194.291 9.94005 194.291 10.0037C194.355 10.1311 194.355 10.3222 194.355 10.6417V14.7878C194.355 15.1073 194.355 15.2984 194.291 15.3621C194.291 15.4895 194.226 15.5532 194.097 15.6169C194.032 15.6806 193.838 15.6806 193.708 15.6806H193.449V15.8717H196.816V15.6806L196.557 15.6796Z" fill="#6A9FD0"/>
<path fill-rule="evenodd" clip-rule="evenodd" d="M197.205 9.55597V9.68337C197.399 9.74707 197.528 9.74707 197.593 9.81171C197.722 9.87447 197.852 10.0028 197.981 10.1302L198.111 10.3213V14.7869C198.111 15.1063 198.047 15.3611 197.917 15.4885C197.787 15.6169 197.528 15.6806 197.14 15.6806V15.8717H199.471V15.6806H199.277C199.083 15.6806 198.889 15.6169 198.695 15.4885C198.564 15.3611 198.436 15.1063 198.436 14.7869V10.7691L202.774 15.9991H202.968V10.7691C202.968 10.4496 202.968 10.2585 203.033 10.1302C203.097 10.0028 203.162 9.87541 203.227 9.87541C203.356 9.81265 203.486 9.74801 203.809 9.68431V9.55691H201.673V9.68431C201.996 9.68431 202.255 9.81265 202.45 10.0037C202.513 10.1311 202.579 10.3859 202.579 10.7691V13.4473L199.471 9.55691L197.205 9.55597Z" fill="#6A9FD0"/>
<path fill-rule="evenodd" clip-rule="evenodd" d="M210.283 9.42764C210.283 9.55597 210.218 9.68244 210.152 9.74707C210.023 9.81077 209.958 9.87447 209.894 9.87447C209.764 9.87447 209.635 9.81171 209.311 9.68337C208.793 9.49227 208.34 9.42857 207.888 9.42857C207.305 9.42857 206.721 9.55691 206.204 9.87541C205.621 10.1302 205.233 10.577 204.909 11.0876C204.585 11.6618 204.391 12.2361 204.391 12.8103C204.391 13.3836 204.585 13.8941 204.845 14.4047C205.104 14.9152 205.557 15.2974 206.075 15.6169C206.593 15.8717 207.175 15.9991 207.888 15.9991C208.406 15.9991 208.859 15.9363 209.248 15.7443C209.635 15.5532 210.024 15.2974 210.347 14.9152V14.4047C209.959 14.8515 209.635 15.1063 209.311 15.2974C208.988 15.4885 208.599 15.5522 208.211 15.5522C207.693 15.5522 207.305 15.4248 206.981 15.2337C206.722 14.9789 206.464 14.5948 206.333 14.1489C206.204 13.7021 206.139 13.1925 206.139 12.6183C206.139 12.044 206.204 11.5335 206.398 11.023C206.592 10.7045 206.786 10.385 207.109 10.1302C207.498 9.93911 207.822 9.81171 208.21 9.81171C208.728 9.81171 209.116 10.0028 209.504 10.2585C209.893 10.577 210.152 11.023 210.282 11.5981H210.476V9.42951H210.283V9.42764Z" fill="#6A9FD0"/>
<path fill-rule="evenodd" clip-rule="evenodd" d="M211.641 14.6585C211.511 14.7859 211.447 14.978 211.447 15.2328C211.447 15.4239 211.511 15.615 211.641 15.7424C211.835 15.8707 211.965 15.9972 212.223 15.9972C212.418 15.9972 212.612 15.8698 212.741 15.7424C212.935 15.615 213 15.4239 213 15.2328C213 14.978 212.935 14.785 212.741 14.6585C212.612 14.5311 212.418 14.4037 212.223 14.4037C211.965 14.4037 211.835 14.5321 211.641 14.6585Z" fill="#6A9FD0"/>
</svg>
