<svg width="472" height="133" viewBox="0 0 472 133" fill="none" xmlns="http://www.w3.org/2000/svg">
<path d="M175.612 46.3664C175.358 47.3811 175.115 48.3959 174.85 49.4005C174.151 52.0211 172.958 54.4552 171.929 56.9502C167.728 67.1764 163.513 77.3975 159.285 87.6135C159.086 88.0955 158.859 88.2908 158.322 88.2705C157.138 88.2261 155.951 88.2274 154.766 88.2705C154.181 88.2908 153.884 88.1259 153.646 87.5513C149.061 76.5252 144.455 65.5075 139.826 54.4983C138.771 51.997 137.907 49.4537 137.397 46.79C137.393 46.7004 137.368 46.613 137.324 46.5349C137.28 46.4568 137.218 46.3904 137.143 46.341C137.191 47.3557 137.247 48.302 137.282 49.2508C137.563 56.6864 137.389 64.1258 137.425 71.5626C137.45 76.9104 137.425 82.2581 137.441 87.6046C137.441 88.1335 137.298 88.2769 136.77 88.2693C134.803 88.2376 132.834 88.2414 130.867 88.2693C130.383 88.2756 130.27 88.1285 130.27 87.6604C130.282 71.5089 130.282 55.3613 130.27 39.2174C130.27 38.7633 130.357 38.5984 130.856 38.6022C134.074 38.6259 137.291 38.6259 140.508 38.6022C140.922 38.6022 141.09 38.7544 141.236 39.1096C145.77 50.2025 150.31 61.2929 154.855 72.3808C155.552 74.0344 156.098 75.7479 156.485 77.5002C156.518 77.5893 156.56 77.6744 156.612 77.7539C156.687 77.66 156.757 77.608 156.777 77.5408C158.574 71.706 161.133 66.1566 163.465 60.5259C166.411 53.41 169.407 46.3194 172.363 39.2047C172.554 38.7481 172.775 38.5832 173.284 38.5883C176.247 38.6175 179.21 38.5997 182.174 38.6048C183.113 38.6048 182.993 38.4855 182.994 39.3988C182.994 55.1275 182.994 70.8523 182.994 86.5734C182.994 87.1124 183.234 87.805 182.867 88.1513C182.537 88.4684 181.851 88.2388 181.333 88.2426C179.512 88.2528 177.692 88.235 175.872 88.2553C175.44 88.2553 175.287 88.145 175.287 87.6896C175.299 76.9522 175.274 66.2149 175.311 55.4788C175.321 52.6096 175.451 49.7391 175.73 46.8788C175.746 46.7126 175.73 46.5439 175.73 46.3714L175.612 46.3664Z" fill="#666666"/>
<path d="M356.963 58.3759C357.902 56.9299 358.987 55.6196 360.351 54.5567C362.948 52.5348 365.931 51.8384 369.16 51.9881C371.212 52.0832 373.183 52.4955 374.968 53.5724C377.477 55.0831 378.818 57.4145 379.576 60.1467C380.083 62.0467 380.334 64.0062 380.32 65.9726C380.339 73.1571 380.32 80.3428 380.339 87.5285C380.339 88.093 380.212 88.2896 379.615 88.2781C377.563 88.2384 375.51 88.2384 373.457 88.2781C372.851 88.2896 372.732 88.0891 372.733 87.5272C372.752 80.9973 372.745 74.4623 372.746 67.9362C372.746 66.1122 372.581 64.3122 371.984 62.5732C370.751 59.0089 367.957 57.7874 364.592 58.0626C360.462 58.4013 357.607 62.0024 356.986 65.7747C356.859 66.5888 356.8 67.4118 356.808 68.2355C356.808 74.6602 356.8 81.0848 356.822 87.5158C356.822 88.1297 356.658 88.2946 356.049 88.2769C353.996 88.2388 351.943 88.2439 349.891 88.2769C349.36 88.2858 349.227 88.1386 349.228 87.6135C349.236 77.9919 349.24 68.3729 349.24 58.7565C349.24 51.3386 349.248 43.9157 349.225 36.503C349.225 35.9068 349.397 35.7799 349.958 35.7901C351.99 35.8231 354.022 35.8269 356.054 35.7901C356.653 35.7787 356.83 35.9169 356.827 36.5423C356.802 43.558 356.811 50.575 356.811 57.5908V58.329L356.963 58.3759Z" fill="#666666"/>
<path d="M342.002 79.0147C342.002 81.4045 342.002 83.708 342.002 86.0051C342.002 86.3527 341.757 86.4123 341.536 86.5125C339.212 87.5887 336.739 88.308 334.201 88.646C330.899 89.1115 327.588 89.2802 324.275 88.821C314.987 87.5425 308.805 82.4446 305.704 73.6315C304.865 71.2493 304.526 68.7607 304.395 66.239C304.192 62.2802 304.496 58.3633 305.872 54.6328C309.249 45.467 315.673 39.7337 325.416 38.1532C330.75 37.2881 336.084 37.6801 341.249 39.4521C341.813 39.6449 342.027 39.8897 342.011 40.5138C341.965 42.6701 341.979 44.8265 342.003 46.9828C342.003 47.5181 341.865 47.527 341.449 47.3063C337.42 45.1499 333.092 44.3889 328.571 44.7047C321.152 45.2248 315.236 50.0436 313.331 57.2508C311.904 62.6886 311.955 68.1163 314.444 73.2725C316.917 78.3932 321.039 81.4412 326.747 82.0945C332.011 82.6983 337.024 81.8193 341.668 79.1682C341.739 79.1289 341.816 79.0984 342.002 79.0147Z" fill="#666666"/>
<path d="M281.447 89.0722C278.3 89.0582 275.255 88.5496 272.452 87.0427C268.143 84.7354 265.438 81.1457 264.291 76.4284C263.237 72.0928 263.304 67.732 264.733 63.4903C266.892 57.0974 271.471 53.443 278.067 52.2912C281.438 51.7039 284.82 51.7509 288.117 52.7352C294.162 54.5376 297.768 58.6816 299.165 64.7321C300.181 69.1298 300.114 73.5668 298.538 77.8376C296.214 84.1341 291.614 87.7543 284.985 88.8083C283.815 88.9988 282.632 89.0871 281.447 89.0722ZM292.075 70.553C292.1 69.1379 291.975 67.7243 291.703 66.3354C291.195 63.834 290.221 61.5864 288.153 59.9501C286.642 58.7552 284.886 58.2174 282.995 58.0664C278.403 57.6973 274.421 59.4262 272.527 64.1258C270.876 68.2343 270.854 72.4582 272.329 76.6224C273.313 79.4041 275.238 81.3893 278.057 82.4205C279.698 83.0205 281.405 83.0775 283.124 82.9761C286.952 82.7528 289.794 80.6206 291.087 77.0258C291.839 74.9253 292.051 72.7512 292.075 70.553Z" fill="#666666"/>
<path d="M408.302 82.952C407.348 84.2915 406.37 85.532 405.121 86.5366C402.384 88.7361 399.204 89.2967 395.806 88.9999C394.256 88.8642 392.758 88.5154 391.371 87.786C388.424 86.236 386.748 83.7853 386.313 80.4988C385.97 77.9125 386.197 75.3908 387.428 73.0429C388.921 70.1965 391.465 68.7023 394.419 67.77C396.751 67.033 399.182 66.8453 401.584 66.5016C403.696 66.1954 405.81 65.9054 407.926 65.6314C408.265 65.5883 408.34 65.4462 408.336 65.1443C408.32 63.7808 408.137 62.4502 407.574 61.1944C406.571 58.948 404.736 57.9041 402.368 57.7531C397.855 57.4677 393.826 58.8275 390.191 61.457L389.79 61.7449C389.588 61.6422 389.663 61.4747 389.663 61.3441C389.663 59.463 389.663 57.5819 389.652 55.7021C389.652 55.3215 389.765 55.0958 390.113 54.9042C393.258 53.169 396.634 52.2722 400.206 52.035C402.434 51.8866 404.651 51.9361 406.824 52.4599C411.599 53.6091 414.3 56.7168 415.263 61.4468C415.541 62.8775 415.675 64.3326 415.661 65.79C415.661 73.0395 415.666 80.2882 415.674 87.5361C415.674 88.1095 415.541 88.2858 414.946 88.2743C412.937 88.235 410.926 88.2426 408.917 88.2743C408.409 88.282 408.275 88.1183 408.282 87.6274C408.321 86.0647 408.302 84.5058 408.302 82.952ZM408.36 72.9021V71.5677C408.36 70.7052 408.36 70.7115 407.471 70.8346C405.631 71.0882 403.789 71.3229 401.948 71.5817C400.216 71.8239 398.473 72.0168 396.832 72.6966C394.537 73.6492 393.469 75.4289 393.553 78.2067C393.615 80.3098 395.032 82.1389 397.165 82.8505C400.786 84.072 404.911 82.5004 406.983 79.1023C408.152 77.1958 408.454 75.0927 408.36 72.9021Z" fill="#666666"/>
<path d="M448.361 58.5028C449.175 57.5071 449.885 56.4961 450.774 55.6145C453.612 52.7758 457.101 51.7902 461.019 51.9995C462.351 52.0497 463.668 52.3025 464.924 52.7491C468.31 54.0049 470.161 56.5862 471.147 59.9247C471.797 62.1343 471.968 64.4074 471.976 66.6893C472.001 73.6416 471.976 80.5952 472 87.5475C472 88.1538 471.811 88.2807 471.248 88.2731C469.175 88.2418 467.101 88.2418 465.025 88.2731C464.511 88.2807 464.403 88.1171 464.403 87.6389C464.42 80.9584 464.42 74.278 464.403 67.5975C464.403 65.8217 464.163 64.0624 463.524 62.3829C462.254 59.0254 459.542 57.8166 456.237 58.0525C452.026 58.3556 449.126 61.9847 448.528 65.861C448.403 66.782 448.348 67.711 448.362 68.6402C448.356 74.9384 448.359 81.2383 448.371 87.5399C448.371 88.1183 448.227 88.2908 447.636 88.2807C445.542 88.2452 443.445 88.2553 441.351 88.2807C440.915 88.2807 440.78 88.1729 440.78 87.7213C440.792 76.2673 440.792 64.8129 440.78 53.358C440.78 52.9077 440.907 52.7973 441.345 52.8024C443.482 52.8252 445.619 52.8329 447.757 52.8024C448.294 52.7935 448.375 52.9863 448.369 53.4531C448.347 55.1224 448.361 56.8107 448.361 58.5028Z" fill="#666666"/>
<path d="M234.868 60.6794C234.296 60.3344 233.792 59.9869 233.252 59.7116C229.049 57.5553 224.8 57.2432 220.6 59.6469C218.125 61.0625 216.579 63.295 215.774 66.0107C214.859 69.0445 214.833 72.2767 215.699 75.3248C217.021 80.032 220.906 82.8987 225.837 83.009C228.954 83.0788 231.756 82.2087 234.32 80.4836C234.426 80.4138 234.531 80.3441 234.64 80.2794C234.681 80.2638 234.724 80.2544 234.767 80.2515C234.894 80.4176 234.83 80.6117 234.83 80.7893C234.836 82.5854 234.817 84.3828 234.845 86.1789C234.852 86.6304 234.686 86.8486 234.304 87.049C232.367 88.0638 230.298 88.6244 228.141 88.8756C224.874 89.2561 221.621 89.213 218.489 88.0904C212.52 85.9493 208.965 81.6569 207.797 75.4935C206.908 70.8295 207.289 66.2111 209.346 61.873C211.804 56.6991 215.958 53.5749 221.557 52.4346C225.294 51.6735 229.039 51.742 232.733 52.7935C234.927 53.4189 234.922 53.4354 234.922 55.6551C234.922 57.2618 234.922 58.8685 234.922 60.4752C234.91 60.5448 234.892 60.6131 234.868 60.6794Z" fill="#666666"/>
<path d="M249.021 59.7015C249.558 58.7742 249.938 57.8191 250.452 56.9236C252.879 52.6997 256.767 51.5961 261.007 52.4371C261.426 52.5196 261.642 52.6819 261.628 53.188C261.591 55.4053 261.613 57.6276 261.613 59.9387C260.875 59.6279 260.204 59.2956 259.472 59.1395C254.991 58.1882 251.527 60.2088 249.937 64.7042C249.238 66.6804 249.019 68.7264 249.02 70.8079C249.02 76.3891 249.011 81.9702 249.036 87.5437C249.036 88.15 248.849 88.2769 248.287 88.268C246.215 88.2384 244.14 88.2384 242.064 88.268C241.557 88.2743 241.43 88.1272 241.43 87.6338C241.444 76.2178 241.444 64.8065 241.43 53.3999C241.43 52.9419 241.523 52.7847 242.016 52.791C244.153 52.8198 246.29 52.8198 248.428 52.791C248.897 52.791 249.039 52.8988 249.033 53.3834C249.006 55.4864 249.021 57.5933 249.021 59.7015Z" fill="#666666"/>
<path d="M424.107 70.4261C424.107 64.7828 424.113 59.137 424.095 53.4975C424.095 52.9699 424.183 52.7707 424.776 52.7821C426.892 52.824 429.009 52.8088 431.126 52.7897C431.532 52.7897 431.66 52.8887 431.659 53.3123C431.647 64.7663 431.647 76.2212 431.659 87.6769C431.659 88.1221 431.532 88.2439 431.091 88.2401C428.996 88.2185 426.9 88.2109 424.806 88.2401C424.253 88.2477 424.093 88.1132 424.095 87.5399C424.115 81.8421 424.107 76.1341 424.107 70.4261Z" fill="#666666"/>
<path d="M193.019 70.5225C193.019 64.8386 193.029 59.1548 193.005 53.4709C193.005 52.9001 193.157 52.7745 193.706 52.7834C195.8 52.8176 197.897 52.81 199.99 52.7834C200.427 52.7834 200.561 52.8861 200.56 53.3402C200.547 64.7714 200.547 76.2026 200.56 87.6338C200.56 88.1056 200.433 88.2426 199.959 88.2363C197.864 88.2109 195.769 88.2109 193.676 88.2363C193.147 88.2439 193.006 88.0955 193.008 87.5691C193.027 81.8903 193.019 76.2064 193.019 70.5225Z" fill="#666666"/>
<path d="M38.2301 59.8841C36.0141 58.6157 33.8501 57.242 31.5921 56.0496C29.8231 55.1173 28.4439 53.7994 27.1752 52.3141C26.1013 51.0644 25.1848 49.6881 24.4461 48.2157C24.135 47.3202 23.7946 46.4399 23.7743 45.4683C23.7273 43.2536 23.6714 41.0402 23.6473 38.8255C23.5635 32.8143 23.533 26.8045 23.6473 20.7933C22.4983 20.0504 21.2819 19.4172 20.014 18.9021C18.4291 18.2349 16.8048 17.7465 15.0498 17.9457C14.9228 25.0654 14.8301 32.1852 14.877 39.3062C14.8974 42.3264 14.8961 45.3465 15.1526 48.3603C15.239 51.3729 16.1216 54.1254 17.8665 56.59C19.2266 58.5104 21.0617 59.8435 23.0898 61.013C28.1378 63.9304 33.1224 66.9417 38.1412 69.9149C38.7216 70.26 38.7305 70.2574 38.7305 69.5928C38.7305 66.6335 38.7216 63.6755 38.7444 60.7137C38.7381 60.2875 38.573 60.0833 38.2301 59.8841Z" fill="#39E11D"/>
<path d="M73.8776 30.4791C73.8433 28.1465 73.4217 25.9254 72.1695 23.9023C71.2691 22.4499 70.3039 21.061 68.9946 19.9447C68.6962 19.5756 68.2898 19.3397 67.8949 19.105C58.8173 13.7066 49.7367 8.31315 40.6532 2.92481C37.171 0.859793 33.4437 -0.163838 29.3506 0.0213545C25.6297 0.190057 22.9387 2.19419 20.2718 4.55856C20.6274 4.6334 20.8712 4.68541 21.1176 4.73488C24.7077 5.40335 28.181 6.45488 31.4689 8.04677C36.1987 10.3501 40.799 12.9098 45.2491 15.7145C47.6277 17.2049 50.0457 18.6319 52.4459 20.0868C53.9762 21.0394 55.4938 22.011 57.0393 22.9408C58.4439 23.7856 59.8713 24.5961 60.9444 25.8709C61.8343 26.9051 62.6411 28.0078 63.3573 29.1688C64.3377 30.795 65.0413 32.5048 65.073 34.457C65.106 36.5245 65.247 38.5908 65.3118 40.6584C65.3296 41.1898 65.4591 41.2063 65.8782 40.9463C68.1201 39.5544 70.37 38.176 72.6279 36.8112C73.5169 36.2708 73.9957 35.5301 73.9665 34.4722C73.9258 33.1403 73.8962 31.8093 73.8776 30.4791Z" fill="#39E11D"/>
<path d="M59.1665 43.7546C59.0776 41.9611 59.0306 40.1662 58.9442 38.3726C58.7957 35.2738 57.4317 32.7141 55.3884 30.4588C54.5965 29.4394 53.6189 28.5786 52.5069 27.922C47.2425 24.7855 41.9769 21.6525 36.71 18.5228C32.6741 16.1331 28.689 13.6571 24.5769 11.3993C20.9334 9.39766 17.022 8.76852 12.9251 9.32409C10.9059 9.59681 9.15973 10.5557 7.53801 11.7341C4.88255 13.6571 2.62839 15.92 1.36733 19.0365C0.0859517 22.2076 0.201517 25.5233 0.177388 28.834C0.164021 28.918 0.155119 29.0027 0.150719 29.0877C-0.0016744 36.7871 -0.0385032 44.4874 0.0402335 52.1885C0.0402335 52.4815 0.0859518 52.7745 0.108811 53.0662C0.0910316 54.7355 0.155799 56.4022 0.289144 58.0626C0.536784 61.1462 1.53242 63.9507 3.49576 66.3811C4.79238 67.9882 6.44966 69.1107 8.22124 70.1458C14.8631 74.0171 21.4516 77.9645 28.0705 81.8776C30.6697 83.4149 33.2773 84.9396 35.8934 86.4516C36.3036 86.69 36.7036 86.9716 37.237 87.0528C37.237 84.2496 37.2129 81.4831 37.2523 78.7166C37.2637 77.849 37.2713 77.0829 36.2693 76.7404C36.0153 76.6554 35.8299 76.4208 35.5962 76.28C28.8782 72.2374 22.1145 68.2774 15.3355 64.3376C15.0928 64.2099 14.865 64.056 14.6561 63.8784C13.0991 62.4375 11.6945 60.8621 10.5529 59.0672C9.48484 57.3878 8.72287 55.612 8.88288 53.5571C8.88422 53.3449 8.86893 53.1328 8.83717 52.9229C8.85406 52.7772 8.86339 52.6307 8.8651 52.484C8.7089 46.6847 8.70509 40.8842 8.7216 35.0836C8.72837 32.9957 8.73599 30.9083 8.74446 28.8213C8.76097 27.5782 8.83209 26.3339 8.77621 25.0933C8.72414 23.9644 9.01877 22.9446 9.41118 21.9108C10.3941 19.3054 12.3892 18.1689 15.0396 17.9368C16.7947 17.7377 18.4189 18.226 20.0038 18.8932C21.2717 19.4083 22.4882 20.0415 23.6371 20.7844C23.8784 20.9113 24.1273 21.0293 24.3597 21.165C27.389 23.0093 30.417 24.8553 33.4437 26.703C35.6602 28.0518 37.8792 29.395 40.1008 30.7328C40.7599 31.1501 41.3948 31.6119 42.0819 31.9759C45.1577 33.602 47.3471 36.0704 48.9612 39.0969C49.7168 40.5112 50.1867 41.994 50.2159 43.624C50.2514 45.6535 50.3797 47.6766 50.4546 49.7036C50.4699 50.1121 50.461 50.367 50.9842 50.041C53.3548 48.5671 55.733 47.1113 58.1188 45.6738C58.8655 45.2374 59.2109 44.6286 59.1665 43.7546Z" fill="#FC9510"/>
<path d="M100.319 105.562C100.361 100.318 100.214 95.077 100.065 89.8333C100.144 88.079 99.956 86.3298 99.9382 84.5781C99.9141 82.3495 99.6499 80.1931 98.5705 78.1636C97.2827 75.7434 95.6559 73.6543 93.2849 72.2476C90.491 70.5885 87.7378 68.8621 84.8817 67.3007C83.1863 66.3773 81.5887 65.2712 79.9289 64.2843C75.4968 61.6494 71.0608 59.0228 66.6211 56.4048C63.1529 54.3651 59.4383 53.2641 55.3744 53.5635C54.1705 53.6523 52.9755 53.7702 51.8452 54.2396C48.8291 55.4915 46.3718 57.4665 44.2954 59.9628C42.3905 62.2561 41.4748 64.9617 41.2005 67.8499C40.9211 70.7914 41.0634 73.7608 41.0088 76.7176C40.9872 77.8769 40.8818 79.0363 40.9631 80.1969C40.9535 80.2387 40.9472 80.2811 40.944 80.3238C40.9288 87.7264 40.7332 95.1328 41.1904 102.53C41.2882 104.106 41.5891 105.661 42.2914 107.106C42.2973 107.21 42.3161 107.313 42.3473 107.413C43.6109 110.165 45.4587 112.406 48.1014 113.949C49.7778 114.926 51.4524 115.904 53.1253 116.883C55.2699 118.14 57.4135 119.398 59.5564 120.658C61.7394 121.965 63.9148 123.285 66.1055 124.577C69.7413 126.719 73.3594 128.89 77.0347 130.962C80.3137 132.811 83.8429 133.568 87.5371 132.534C91.8735 131.358 95.6866 128.757 98.3609 125.15C99.5039 123.635 100.239 121.958 100.205 120.012C100.458 115.194 100.338 110.374 100.319 105.562ZM90.044 120.783C88.4134 122.348 86.5517 123.437 84.2315 123.548C82.2288 123.646 80.414 123.066 78.7262 122.014C77.742 121.4 76.7273 120.836 75.7266 120.25C73.663 118.9 71.5155 117.687 69.3921 116.436C64.9575 113.827 60.5156 111.229 56.0665 108.644C55.3592 108.232 54.8931 107.561 54.2696 107.062C53.0657 105.647 51.8338 104.254 50.9423 102.603C50.2117 101.29 49.8108 99.8195 49.774 98.3179C49.6381 92.3181 49.5873 86.3184 49.5543 80.3187C49.6812 80.1259 49.6292 79.909 49.6292 79.7022C49.6495 76.0707 49.5174 72.4303 49.7219 68.8076C49.9302 65.1126 51.9799 62.9918 55.0442 62.4261C57.4381 61.9834 59.6072 62.6493 61.7153 63.6463C64.4253 64.9262 66.9119 66.5967 69.462 68.148C74.2332 71.0477 78.9866 73.9727 83.7641 76.866C87.3428 79.0338 89.6059 82.2036 90.853 86.1256C91.2454 87.356 91.0689 88.6815 91.2124 89.9576L91.5019 98.3572C91.5705 100.377 91.6387 102.398 91.7064 104.42C91.7191 104.801 91.7445 105.181 91.7648 105.562C91.819 107.585 91.874 109.609 91.9299 111.634C91.9147 113.504 92.3109 115.377 91.841 117.244C91.5951 118.159 91.2546 119.046 90.825 119.89C90.552 120.171 90.3933 120.561 90.044 120.783Z" fill="#25A1E6"/>
<path d="M427.951 36.2873C431.554 36.2873 433.754 39.6829 432.126 42.7183C430.96 44.8899 427.892 45.6966 425.582 44.4371C425.076 44.1576 424.631 43.7804 424.273 43.3274C423.914 42.8744 423.65 42.3547 423.494 41.7985C423.339 41.2423 423.296 40.6608 423.368 40.0879C423.44 39.5149 423.625 38.962 423.914 38.4614C424.802 36.9304 426.218 36.2937 427.951 36.2873Z" fill="#666666"/>
<path d="M196.892 36.2924C200.419 36.3063 202.607 39.6449 201.055 42.6447C199.874 44.9279 196.593 45.7613 194.325 44.3508C192.166 43.0062 191.57 40.1282 193.037 38.0999C193.909 36.8949 195.208 36.2861 196.892 36.2924Z" fill="#666666"/>
<path d="M115.062 100.988C115.071 96.041 115.124 91.0941 114.935 86.1472C114.977 81.9347 114.88 77.7235 114.671 73.516C114.611 72.3262 114.424 71.1415 113.896 70.0443C112.738 67.1383 110.954 64.76 108.213 63.1389C101.391 59.1015 94.593 55.0209 87.767 50.9936C84.8918 49.2964 82.0916 47.4699 79.0628 46.0467C75.7012 44.4624 72.1657 44.1035 68.5362 44.6045C66.6973 44.8582 65.1225 45.8133 63.6456 46.9004C62.8049 47.5194 61.9502 48.1269 61.2086 48.973C63.274 49.3397 65.3149 49.8332 67.3195 50.4507C72.5022 52.0997 77.1731 54.8104 81.8325 57.5134C86.5123 60.2291 91.0904 63.1186 95.6877 65.9739C97.8466 67.3172 100.214 68.3839 101.952 70.3437C102.754 71.4244 103.56 72.5 104.29 73.6327C105.602 75.6749 105.973 77.9264 106.04 80.2844C106.096 82.1985 106.115 84.1164 106.294 86.0254C106.294 86.1307 106.279 86.236 106.282 86.3412C106.426 91.0581 106.573 95.7751 106.721 100.492C106.738 100.702 106.766 100.911 106.805 101.117C106.82 102.236 106.805 103.355 106.858 104.472C107.112 110.008 107.071 115.527 105.958 120.987C105.831 121.601 105.903 121.655 106.519 121.467C106.646 121.43 106.76 121.388 106.877 121.34C109.529 120.28 111.786 118.425 113.337 116.03C114.276 114.614 114.988 113.029 115.025 111.313C115.118 107.873 115.062 104.429 115.062 100.988ZM109.39 101.04C109.735 101.04 110.079 101.051 110.422 101.059C110.079 101.051 109.735 101.044 109.39 101.04Z" fill="#FEBA2E"/>
<path d="M88.2458 109.684C85.6005 108.113 82.9412 106.567 80.287 105.01C78.1459 103.742 75.9984 102.486 73.8636 101.205C72.1505 100.18 70.2862 99.3707 68.9933 97.7483C68.493 97.1268 67.919 96.556 67.4389 95.9218C65.9264 93.9252 64.5638 91.8628 64.6247 89.199C64.6755 88.164 64.5727 87.1315 64.5587 86.099C64.5028 81.6011 64.4605 77.1032 64.4317 72.6053C64.4228 71.1276 64.4558 69.6498 64.5003 68.1734C64.5213 67.976 64.4831 67.7768 64.3907 67.6011C64.2982 67.4254 64.1556 67.2811 63.9809 67.1865C62.4193 66.214 60.7711 65.3877 59.0573 64.7181C58.2153 64.382 57.3835 64.0167 56.4869 63.8239C56.0208 63.7237 55.8913 63.8594 55.8888 64.3186C55.8799 65.8179 55.8189 67.3159 55.8049 68.8139C55.7453 75.3413 55.7122 81.8674 55.7961 88.3948C55.7961 88.6637 55.7427 88.9454 55.8824 89.2016C55.8926 90.3812 55.918 91.5583 55.9929 92.7392C56.3675 98.6882 59.0992 103.059 64.5257 105.671C64.7022 105.786 64.8724 105.911 65.054 106.019L90.044 120.783C90.3945 120.559 90.552 120.168 90.8314 119.881C91.261 119.037 91.6015 118.15 91.8474 117.235C92.3185 115.368 91.921 113.495 91.9362 111.625C90.6742 111.041 89.4425 110.393 88.2458 109.684Z" fill="#FEBA2E"/>
</svg>
