<svg width="262" height="32" viewBox="0 0 262 32" fill="none" xmlns="http://www.w3.org/2000/svg">
<path d="M61.0605 11.8312H38.9064L38.0856 12.4402V31.9945H44.2184V24.6618L44.8038 24.1413H61.0613C65.1662 24.1413 67.0906 23.0455 67.0906 20.2339V15.7441C67.0898 12.9278 65.1662 11.8312 61.0605 11.8312ZM61.0605 19.0605C61.0605 20.3852 60.1773 20.6603 58.2528 20.6603H44.8709L44.2176 20.0301V15.8413L44.803 15.3098H58.2528C60.1773 15.3098 61.0605 15.5818 61.0605 16.9128V19.0605Z" fill="#005288"/>
<path d="M78.2739 15.5301L83.5512 23.2015L83.2589 23.9445H71.5881L68.609 27.5807H85.9812L87.1852 28.3081L89.8823 31.9992H96.9007L81.5169 11.5811" fill="#005288"/>
<path d="M148.061 28.0275V22.6003L148.692 22.0594H160.433V18.6035H141.824V31.9984H169.274V28.559H148.72" fill="#005288"/>
<path d="M169.564 11.8312H141.824V15.6312H169.564V11.8312Z" fill="#005288"/>
<path d="M110.885 15.4298H133.233C132.889 12.6103 131.125 11.828 126.652 11.828H110.648C105.6 11.828 103.99 12.8055 103.99 16.5953V27.228C103.99 31.0218 105.6 31.9992 110.648 31.9992H126.652C131.191 31.9992 132.929 31.1535 133.047 28.229H110.885L110.228 27.6152V15.8405" fill="#005288"/>
<path d="M23.173 19.6883H6.91552L6.43677 19.1655V15.7151L6.91315 15.3498H28.8295L29.1289 14.6232C28.3823 12.7177 26.4492 11.8288 22.8594 11.8288H7.63521C2.59103 11.8288 0.978625 12.8063 0.978625 16.5961V18.8253C0.978625 22.6199 2.59103 23.5957 7.63521 23.5957H23.8564L24.3659 24.0394V27.6466L23.9504 28.2094H5.39555V28.1921H0.535432C0.535432 28.1921 -0.0207319 28.4688 0.000598225 28.5982C0.415351 31.2491 2.23552 32 6.59319 32H23.173C28.2164 32 29.877 31.0226 29.877 27.2288V24.4517C29.877 20.6642 28.2164 19.6883 23.173 19.6883Z" fill="#005288"/>
<path d="M187.013 11.7481H177.888L177.393 12.6832L187.527 20.0128C189.447 18.91 191.535 17.7922 193.808 16.6894" fill="#005288"/>
<path d="M195.19 25.5553L204.097 32H213.334L213.716 31.1464L200.416 21.4872C198.649 22.7735 196.904 24.1319 195.19 25.5553Z" fill="#005288"/>
<path d="M185.655 31.9851H177.399L176.702 30.9011C182.315 25.5232 207.423 2.46986 262 0C262 0 216.191 1.53318 185.655 31.9851Z" fill="#A7A9AC"/>
</svg>
