<svg width="233" height="48" viewBox="0 0 233 48" fill="none" xmlns="http://www.w3.org/2000/svg">
<path d="M14.2506 20.17L23.3005 10.8487L32.3553 20.1749L37.6212 14.7509L23.3005 0L8.9847 14.746L14.2506 20.17Z" fill="#F3BA2F"/>
<path d="M10.5319 23.9992L5.26606 18.5753L0 23.9994L5.2658 29.4233L10.5319 23.9992Z" fill="#F3BA2F"/>
<path d="M14.2506 27.83L23.3005 37.1513L32.3549 27.8255L37.6237 33.2464L37.6212 33.2494L23.3005 48L8.97697 33.2468L14.2506 27.83Z" fill="#F3BA2F"/>
<path d="M41.3355 29.4259L46.6016 24.0017L41.3358 18.5778L36.0697 24.002L41.3355 29.4259Z" fill="#F3BA2F"/>
<path d="M28.6419 23.9972H28.6441L23.3005 18.4932L17.9544 23.9998L17.9618 24.0078L23.3005 29.5068L28.6441 24.0028L28.6467 23.9998L28.6419 23.9972Z" fill="#F3BA2F"/>
<path d="M54.8108 11.6308H66.2639C69.1064 11.6308 71.2559 12.3822 72.7127 13.885C73.8401 15.0489 74.4036 16.4915 74.4036 18.2123V18.285C74.4036 19.0122 74.3164 19.6548 74.1408 20.2121C73.9656 20.7701 73.7315 21.2725 73.4389 21.721C73.147 22.1698 72.8077 22.5637 72.4219 22.9027C72.0358 23.2423 71.621 23.5335 71.1768 23.7754C72.6056 24.3334 73.7304 25.0905 74.5505 26.0482C75.3701 27.0062 75.7805 28.3335 75.7805 30.03V30.1024C75.7805 31.2663 75.5634 32.2842 75.1287 33.1573C74.694 34.0296 74.0712 34.7572 73.2604 35.3391C72.4495 35.921 71.4745 36.357 70.335 36.6482C69.1955 36.939 67.9327 37.0842 66.5469 37.0842H54.8108V11.6308ZM65.1188 21.9211C66.3195 21.9211 67.2727 21.7096 67.9783 21.285C68.6843 20.8607 69.0372 20.1757 69.0372 19.2306V19.1578C69.0372 18.3097 68.731 17.6614 68.1193 17.2125C67.5072 16.764 66.6246 16.5396 65.4718 16.5396H60.1058V21.9211H65.1188ZM66.5664 32.1758C67.7667 32.1758 68.7074 31.9521 69.3906 31.5032C70.073 31.0547 70.4145 30.3576 70.4145 29.412V29.3396C70.4145 28.4912 70.0965 27.8186 69.4612 27.3212C68.8256 26.825 67.802 26.5763 66.3897 26.5763H60.1058V32.1762L66.5664 32.1758Z" fill="#F3BA2F"/>
<path d="M82.6015 11.6308H88.0385V37.0849H82.6015V11.6308Z" fill="#F3BA2F"/>
<path d="M96.2732 11.6308H101.285L112.865 27.3034V11.6308H118.231V37.0849H113.607L101.639 20.9036V37.0849H96.2732V11.6308Z" fill="#F3BA2F"/>
<path d="M134.691 11.4492H139.704L150.295 37.0849H144.611L142.351 31.3762H131.902L129.643 37.0849H124.099L134.691 11.4492ZM140.41 26.4303L137.126 18.1762L133.844 26.4303H140.41Z" fill="#F3BA2F"/>
<path d="M156.164 11.6308H161.177L172.756 27.3034V11.6308H178.122V37.0849H173.498L161.53 20.9036V37.0849H156.164V11.6308Z" fill="#F3BA2F"/>
<path d="M197.688 37.5209C195.875 37.5209 194.193 37.1812 192.64 36.503C191.086 35.8248 189.745 34.8971 188.615 33.7211C187.485 32.5454 186.602 31.1575 185.968 29.5576C185.332 27.9574 185.014 26.2483 185.014 24.4301V24.3577C185.014 22.5395 185.332 20.8369 185.968 19.2488C186.603 17.661 187.485 16.267 188.615 15.0671C189.744 13.8672 191.098 12.9213 192.675 12.2306C194.251 11.5399 195.994 11.1945 197.9 11.1945C199.052 11.1945 200.105 11.2919 201.059 11.4853C202.012 11.6797 202.877 11.9459 203.654 12.2852C204.431 12.6249 205.148 13.037 205.808 13.5215C206.466 14.0067 207.078 14.5398 207.643 15.1217L204.184 19.2306C203.218 18.334 202.236 17.6303 201.236 17.1215C200.235 16.6128 199.112 16.358 197.864 16.358C196.829 16.358 195.869 16.5642 194.988 16.9763C194.105 17.3884 193.346 17.9579 192.71 18.685C192.075 19.4122 191.581 20.2549 191.227 21.2122C190.875 22.1702 190.698 23.1942 190.698 24.2849V24.3573C190.698 25.448 190.875 26.4788 191.227 27.4479C191.581 28.418 192.068 29.2661 192.693 29.9932C193.316 30.7204 194.069 31.2966 194.951 31.7208C195.835 32.1455 196.805 32.357 197.864 32.357C199.277 32.357 200.47 32.0905 201.447 31.5571C202.424 31.0244 203.395 30.2969 204.36 29.3753L207.82 32.9753C207.184 33.6786 206.524 34.3091 205.843 34.866C205.16 35.424 204.413 35.9025 203.601 36.3028C202.789 36.7024 201.9 37.0061 200.936 37.2116C199.97 37.4174 198.888 37.5209 197.688 37.5209Z" fill="#F3BA2F"/>
<path d="M214.218 11.6308H232.823V16.6128H219.584V21.7763H231.234V26.7579H219.584V32.1034H233V37.0849H214.218V11.6308Z" fill="#F3BA2F"/>
</svg>
