<svg width="225" height="48" viewBox="0 0 225 48" fill="none" xmlns="http://www.w3.org/2000/svg">
<path d="M93.5723 9.6V38.4H88.5737V15.8H88.5071L79.5764 38.4H76.2441L67.1134 15.8H67.0468V38.4H62.4482V9.6H69.646L77.9102 30.9333H78.0435L86.7743 9.6H93.5723ZM97.7044 11.8C97.7044 11 97.971 10.3333 98.5708 9.8C99.1706 9.26667 99.8371 9 100.637 9C101.503 9 102.236 9.26667 102.77 9.8C103.303 10.3333 103.636 11 103.636 11.8C103.636 12.6 103.369 13.2667 102.77 13.8C102.17 14.3333 101.503 14.6 100.637 14.6C99.7704 14.6 99.104 14.3333 98.5708 13.8C98.0376 13.2 97.7044 12.5333 97.7044 11.8ZM103.103 17.7333V38.4H98.2375V17.7333H103.103ZM117.832 34.8667C118.565 34.8667 119.365 34.7333 120.231 34.3333C121.097 34 121.897 33.5333 122.63 33V37.5333C121.831 38 120.964 38.3333 119.964 38.5333C118.965 38.7333 117.898 38.8667 116.699 38.8667C113.633 38.8667 111.167 37.9333 109.301 36C107.368 34.0667 106.435 31.6 106.435 28.6667C106.435 25.3333 107.435 22.6 109.368 20.4667C111.3 18.3333 114.033 17.2667 117.632 17.2667C118.565 17.2667 119.498 17.4 120.364 17.6C121.297 17.8 122.031 18.1333 122.564 18.4V23.0667C121.831 22.5333 121.031 22.0667 120.298 21.8C119.498 21.5333 118.698 21.3333 117.898 21.3333C115.966 21.3333 114.433 21.9333 113.233 23.2C112.033 24.4667 111.5 26.1333 111.5 28.2667C111.5 30.3333 112.1 32 113.233 33.1333C114.366 34.2667 115.899 34.8667 117.832 34.8667ZM136.426 17.4C136.826 17.4 137.159 17.4 137.493 17.4667C137.826 17.5333 138.092 17.6 138.292 17.6667V22.6C138.026 22.4 137.693 22.2 137.159 22.0667C136.626 21.9333 136.093 21.8 135.36 21.8C134.16 21.8 133.161 22.3333 132.361 23.3333C131.561 24.3333 131.094 25.8667 131.094 28V38.4H126.229V17.7333H131.094V21H131.161C131.628 19.8667 132.294 19 133.161 18.3333C134.094 17.7333 135.16 17.4 136.426 17.4ZM138.559 28.4C138.559 25 139.559 22.2667 141.425 20.2667C143.358 18.2667 146.023 17.2667 149.422 17.2667C152.621 17.2667 155.154 18.2 156.953 20.1333C158.753 22.0667 159.686 24.6667 159.686 27.9333C159.686 31.2667 158.686 33.9333 156.82 35.9333C154.887 37.9333 152.288 38.9333 148.956 38.9333C145.757 38.9333 143.224 38 141.358 36.1333C139.492 34.2 138.559 31.6 138.559 28.4ZM143.624 28.2C143.624 30.3333 144.091 32 145.09 33.1333C146.09 34.2667 147.49 34.8667 149.289 34.8667C151.022 34.8667 152.421 34.3333 153.355 33.1333C154.288 32 154.754 30.3333 154.754 28.0667C154.754 25.8667 154.288 24.2 153.355 23C152.421 21.8667 151.022 21.2667 149.356 21.2667C147.556 21.2667 146.223 21.8667 145.224 23.0667C144.091 24.3333 143.624 26 143.624 28.2ZM166.951 23.2C166.951 23.8667 167.15 24.4667 167.617 24.8667C168.084 25.2667 169.017 25.7333 170.549 26.3333C172.482 27.1333 173.882 28 174.615 28.9333C175.415 29.9333 175.815 31.0667 175.815 32.4667C175.815 34.4 175.081 35.9333 173.549 37.1333C172.082 38.3333 170.016 38.8667 167.484 38.8667C166.617 38.8667 165.684 38.7333 164.618 38.5333C163.552 38.3333 162.685 38.0667 161.952 37.7333V32.9333C162.818 33.5333 163.818 34.0667 164.818 34.4C165.818 34.7333 166.751 34.9333 167.617 34.9333C168.683 34.9333 169.55 34.8 170.016 34.4667C170.549 34.1333 170.816 33.6667 170.816 32.9333C170.816 32.2667 170.549 31.7333 170.016 31.2C169.483 30.7333 168.417 30.2 166.951 29.6C165.151 28.8667 163.885 28 163.152 27.0667C162.419 26.1333 162.019 24.9333 162.019 23.4667C162.019 21.6 162.752 20.0667 164.218 18.8667C165.684 17.6667 167.617 17.0667 169.95 17.0667C170.683 17.0667 171.483 17.1333 172.349 17.3333C173.215 17.5333 174.015 17.7333 174.615 17.9333V22.6667C173.948 22.2667 173.215 21.8667 172.349 21.5333C171.483 21.2 170.616 21.0667 169.816 21.0667C168.883 21.0667 168.15 21.2667 167.684 21.6C167.217 22.0667 166.951 22.5333 166.951 23.2ZM177.881 28.4C177.881 25 178.88 22.2667 180.746 20.2667C182.679 18.2667 185.345 17.2667 188.744 17.2667C191.943 17.2667 194.476 18.2 196.275 20.1333C198.075 22.0667 199.008 24.6667 199.008 27.9333C199.008 31.2667 198.008 33.9333 196.142 35.9333C194.209 37.9333 191.61 38.9333 188.278 38.9333C185.078 38.9333 182.546 38 180.68 36.1333C178.88 34.2 177.881 31.6 177.881 28.4ZM182.946 28.2C182.946 30.3333 183.412 32 184.412 33.1333C185.412 34.2667 186.811 34.8667 188.611 34.8667C190.344 34.8667 191.743 34.3333 192.676 33.1333C193.609 32 194.076 30.3333 194.076 28.0667C194.076 25.8667 193.609 24.2 192.676 23C191.743 21.8667 190.344 21.2667 188.677 21.2667C186.878 21.2667 185.545 21.8667 184.545 23.0667C183.479 24.3333 182.946 26 182.946 28.2ZM215.203 21.7333H207.938V38.4H203.007V21.7333H199.541V17.7333H203.007V14.8667C203.007 12.7333 203.74 10.9333 205.139 9.53333C206.539 8.13333 208.338 7.46667 210.538 7.46667C211.137 7.46667 211.671 7.53333 212.137 7.53333C212.604 7.53333 213.004 7.66667 213.337 7.8V12C213.203 11.9333 212.87 11.8 212.47 11.6667C212.07 11.5333 211.604 11.4667 211.071 11.4667C210.071 11.4667 209.271 11.8 208.738 12.4C208.205 13 207.938 14 207.938 15.2V17.6667H215.203V13L220.068 11.5333V17.6667H225V21.6667H220.068V31.3333C220.068 32.6 220.335 33.4667 220.735 34C221.201 34.5333 221.934 34.8 222.934 34.8C223.201 34.8 223.534 34.7333 223.934 34.6C224.334 34.4667 224.667 34.3333 224.933 34.1333V38.1333C224.6 38.3333 224.134 38.4667 223.4 38.6C222.667 38.7333 222.001 38.8 221.268 38.8C219.202 38.8 217.669 38.2667 216.669 37.2C215.669 36.1333 215.136 34.4667 215.136 32.2667L215.203 21.7333Z" fill="#737373"/>
<path d="M22.7932 0H0V22.8H22.7932V0Z" fill="#F25022"/>
<path d="M47.9858 0H25.1925V22.8H47.9858V0Z" fill="#7FBA00"/>
<path d="M22.7932 25.2H0V48H22.7932V25.2Z" fill="#00A4EF"/>
<path d="M47.9858 25.2H25.1925V48H47.9858V25.2Z" fill="#FFB900"/>
</svg>
