<svg width="289" height="22" viewBox="0 0 289 22" fill="none" xmlns="http://www.w3.org/2000/svg">
<path fill-rule="evenodd" clip-rule="evenodd" d="M17.8146 8.1315C18.6948 7.47073 18.9155 6.3733 18.9155 5.49485C18.9155 4.39614 18.6948 3.51897 18.0353 2.63923C17.5952 1.76206 16.7164 1.10258 15.6156 0.663349C14.5147 0.224122 12.757 0.00515223 10.3372 0.00515223H0V0.444379C0.880149 0.444379 1.54091 0.663349 1.97969 0.883607C2.41977 1.10258 2.64045 1.32283 2.64045 1.54309C2.85984 1.76335 3.08052 2.64052 3.08052 3.73923V17.7932C3.08052 19.1109 2.85984 19.7704 2.64045 20.2096C2.64045 20.4286 2.41977 20.6488 1.97969 20.8678C1.54091 21.0881 0.880149 21.0881 0 21.0881V21.7475H10.9967C14.0759 21.7475 16.4957 21.0881 18.0353 19.7717C19.3543 18.673 20.015 17.3553 20.015 15.5984C20.015 14.0617 19.3543 12.963 18.2547 11.8669C17.3746 11.2061 15.8349 10.7669 13.8565 10.11C15.8362 9.66815 17.1552 9.00995 17.8146 8.1315ZM7.91876 1.10258C9.45838 1.10258 10.7786 1.32283 11.4381 1.76335C12.0975 1.98232 12.7583 2.42155 12.9777 3.07845C13.4178 3.73923 13.6384 4.39614 13.6384 5.49485C13.6384 6.3733 13.4178 7.25176 12.9777 7.69098C12.5363 8.35047 12.0962 8.7897 11.4368 9.22892C10.5566 9.66815 9.45838 9.66815 7.91876 9.66815V1.10258ZM11.6562 11.4263C12.5363 11.8656 13.1971 12.3048 13.6372 13.182C14.0772 14.0591 14.2966 14.9389 14.2966 15.8173C14.2966 16.6971 14.0772 17.5742 13.6372 18.2337C13.1971 18.8919 12.757 19.5514 12.0962 19.9906C11.2174 20.2096 10.5566 20.4286 9.67648 20.4286C9.23641 20.4286 8.79762 20.4286 8.35755 19.9906C8.13686 19.7704 7.91747 19.3299 7.91747 18.673V10.9858C9.67777 10.9858 10.7786 11.2048 11.6562 11.4263Z" fill="#2E3192"/>
<path fill-rule="evenodd" clip-rule="evenodd" d="M28.4642 9.95539C29.4811 9.95539 30.1148 9.95539 30.369 10.0829C31.004 10.2104 31.3847 10.5904 31.7654 10.9691C32.1461 11.3504 32.4003 11.9841 32.5268 12.8715H32.9075V9.19415H22.369V9.44789H22.8774C23.2594 9.44789 23.5137 9.57541 23.7666 9.82787C23.8944 9.82787 24.0208 10.0816 24.1473 10.2091C24.1473 10.3354 24.1473 10.7166 24.1473 11.3504V19.5888C24.1473 20.2238 24.1473 20.6037 24.0196 20.7313C24.0196 20.9837 23.8931 21.1112 23.6388 21.2388C23.5124 21.3663 23.1304 21.3663 22.8761 21.3663H22.3677V21.7463H33.1592L33.7954 17.6902H33.4147C33.1605 18.8314 32.652 19.7189 31.8906 20.2263C31.2556 20.7338 30.24 20.9863 29.0978 20.9863H28.3364C27.9557 20.9863 27.7015 20.9863 27.5737 20.8601C27.4472 20.7326 27.3195 20.6063 27.3195 20.4801C27.193 20.3513 27.193 19.9713 27.193 19.2114V15.6615C27.8279 15.6615 28.2087 15.789 28.5907 15.9152C28.8449 16.0427 29.0991 16.4227 29.3521 16.8014C29.605 17.3102 29.7328 17.9439 29.8593 18.5776H30.24V12.109H29.8593C29.7328 12.9965 29.4785 13.7564 29.0978 14.2652C28.8436 14.7727 28.2087 15.0265 27.4472 15.0265H27.193V9.95539H28.4642Z" fill="#2E3192"/>
<path fill-rule="evenodd" clip-rule="evenodd" d="M40.5256 16.0402L44.5882 21.745H48.5244V21.365C48.1437 21.365 47.8894 21.2375 47.6365 20.9837C47.51 20.8575 47.128 20.6037 46.7486 20.0975L43.8294 15.7864C44.5908 15.6589 45.098 15.2789 45.6064 14.9002C46.2414 14.3927 46.6221 13.6328 46.6221 12.6178C46.6221 11.8578 46.3679 11.2241 45.8607 10.7166C45.48 10.0829 44.845 9.70293 44.2101 9.44918C43.4474 9.32166 42.3052 9.19543 40.9089 9.19543H35.0692V9.44918C35.5776 9.44918 35.9571 9.5767 36.2113 9.70293C36.4655 9.82916 36.592 9.95539 36.592 10.0829C36.7185 10.2104 36.7185 10.7166 36.7185 11.3504V19.5888C36.7185 20.2238 36.7185 20.6037 36.592 20.8575C36.592 20.9837 36.4643 21.11 36.2113 21.2375C35.9584 21.365 35.5764 21.365 35.0692 21.365V21.745H41.4173V21.365C40.9089 21.365 40.5295 21.365 40.2752 21.2375C40.021 21.11 39.8945 20.9837 39.8945 20.8575C39.768 20.6037 39.6403 20.2238 39.6403 19.5888V16.0402H40.5256ZM40.6521 9.82787C41.6677 9.82787 42.4291 10.0816 42.8098 10.5891C43.3183 10.9691 43.5726 11.7303 43.5726 12.6165C43.5726 13.3778 43.4448 13.8852 43.1906 14.2652C42.9363 14.6452 42.5556 14.8989 42.1749 15.1514C41.6664 15.2789 41.0328 15.4052 40.2701 15.4052H39.6351V9.82787H40.6521Z" fill="#2E3192"/>
<path fill-rule="evenodd" clip-rule="evenodd" d="M59.9508 11.0953C60.84 10.3341 61.3485 9.82787 61.6014 9.70164C61.8557 9.57412 62.2364 9.57412 62.6171 9.44789V9.19415H57.793V9.44789C58.3015 9.57541 58.6809 9.57541 58.8087 9.70164C59.0629 9.82787 59.1894 9.9541 59.1894 10.2091C59.1894 10.5891 58.8087 10.9691 58.1737 11.4753L53.6026 15.2789V11.3504C53.6026 10.7166 53.6026 10.3354 53.6026 10.0829C53.7291 9.95539 53.8569 9.82916 53.9834 9.70293C54.2376 9.57541 54.6183 9.44918 55.0003 9.44918V9.19415H48.7786V9.44789H49.1606C49.5413 9.44789 49.7955 9.57541 50.0485 9.70164C50.175 9.82787 50.4292 9.9541 50.4292 10.0816C50.557 10.3341 50.557 10.7153 50.557 11.3491V19.5875C50.557 20.2225 50.557 20.6025 50.4292 20.73C50.3027 20.9824 50.175 21.11 50.0485 21.2375C49.7943 21.365 49.54 21.365 49.1606 21.365H48.7786V21.745H55.1268V21.365C54.6183 21.365 54.2376 21.365 54.1098 21.2375C53.8569 21.11 53.7291 20.9837 53.6026 20.8575C53.6026 20.6037 53.6026 20.2238 53.6026 19.5888V16.1677L53.9834 15.7864L56.9038 19.3376C57.411 20.0975 57.7917 20.6037 57.7917 20.8588C57.7917 20.985 57.664 21.1112 57.5375 21.2388C57.4097 21.2388 57.1568 21.3663 56.7761 21.3663V21.7463H63.2507V21.3663C62.87 21.3663 62.6158 21.2388 62.2351 21.1125C61.7266 20.8601 61.2194 20.3513 60.5845 19.4651L56.2676 14.0141L59.9508 11.0953Z" fill="#2E3192"/>
<path fill-rule="evenodd" clip-rule="evenodd" d="M71.7593 8.9404C71.6315 9.32038 71.505 9.44789 71.3773 9.57412C71.3773 9.70164 71.2508 9.70164 70.9978 9.70164C70.8714 9.70164 70.6171 9.70164 70.2351 9.44789C69.728 9.32038 69.4737 9.19415 69.093 9.06792C68.7123 8.9404 68.3316 8.9404 67.9509 8.9404C66.8088 8.9404 65.9196 9.32038 65.1569 9.9541C64.3941 10.7153 64.1399 11.4753 64.1399 12.4903C64.1399 13.124 64.2677 13.6315 64.5206 14.1377C64.7749 14.6452 65.1556 15.0252 65.664 15.4052C66.1725 15.7851 66.9339 16.2926 68.0761 16.7988C68.964 17.3076 69.4724 17.5601 69.8531 17.8138C70.1074 18.0663 70.3616 18.3213 70.4881 18.5751C70.6159 18.955 70.7423 19.2075 70.7423 19.4612C70.7423 19.9687 70.4881 20.3474 70.1074 20.7287C69.728 21.1087 69.2195 21.3624 68.4568 21.3624C67.5689 21.3624 66.8062 20.9811 65.9183 20.3474C65.1556 19.5862 64.6484 18.5738 64.3941 17.3063H64.1399V21.9974H64.3941C64.5219 21.7437 64.6484 21.4886 64.7762 21.3637C65.0304 21.2362 65.1556 21.2362 65.4111 21.2362C65.5389 21.2362 65.7905 21.2362 66.046 21.3637C66.5545 21.6174 67.0617 21.7437 67.4424 21.8712C67.6966 21.9987 68.0774 21.9987 68.5845 21.9987C69.728 21.9987 70.8701 21.6187 71.6315 20.8575C72.3929 20.0963 72.9014 19.2088 72.9014 18.1951C72.9014 17.3089 72.6472 16.5477 72.14 15.9139C71.6315 15.4064 70.6171 14.6465 69.093 13.8865C68.0774 13.3778 67.4424 12.9991 67.1882 12.8715C66.681 12.6178 66.4268 12.2378 66.3003 11.9854C66.1738 11.7316 66.046 11.6054 66.046 11.2241C66.046 10.8441 66.3003 10.4642 66.5545 10.0829C66.9352 9.82916 67.4424 9.57541 68.0786 9.57541C68.9665 9.57541 69.7292 9.95539 70.3642 10.5891C71.1256 11.2228 71.5063 11.9841 71.7606 13.1253H72.1413L72.0122 8.9404H71.7593Z" fill="#2E3192"/>
<path fill-rule="evenodd" clip-rule="evenodd" d="M83.1857 15.6589V19.5888C83.1857 20.2238 83.1857 20.6037 83.1857 20.7313C83.058 20.9837 82.9315 21.1112 82.805 21.2388C82.5508 21.3663 82.2965 21.3663 81.9158 21.3663H81.5351V21.7463H88.0098V21.3663H87.6291C87.2471 21.3663 86.9941 21.3663 86.7412 21.2388C86.6134 21.1112 86.4869 20.985 86.3592 20.7313C86.2327 20.6037 86.2327 20.2238 86.2327 19.5888V11.3504C86.2327 10.7166 86.2327 10.3354 86.3592 10.2091C86.4869 9.95539 86.6134 9.82787 86.7412 9.70164C86.9954 9.57412 87.2484 9.44789 87.6291 9.44789H88.0098V9.19415H81.5351V9.44789H81.9158C82.2965 9.44789 82.5508 9.57541 82.6773 9.70164C82.9315 9.82787 83.058 9.9541 83.1857 10.0816C83.1857 10.3341 83.1857 10.7153 83.1857 11.3491V14.8989H78.7424V11.3504C78.7424 10.7166 78.8689 10.3354 78.8689 10.2091C78.9966 9.95539 79.1231 9.82787 79.2496 9.70164C79.5038 9.57412 79.758 9.44789 80.1375 9.44789H80.5182V9.19415H74.0435V9.44789H74.4242C74.8049 9.44789 75.0592 9.57541 75.3134 9.70164C75.4399 9.82787 75.5677 9.9541 75.6928 10.0816C75.8193 10.3341 75.8193 10.7153 75.8193 11.3491V19.5875C75.8193 20.2225 75.8193 20.6025 75.6928 20.73C75.5664 20.9824 75.4386 21.11 75.3134 21.2375C75.0592 21.365 74.8049 21.365 74.4242 21.365H74.0435V21.745H80.5182V21.365H80.1375C79.7568 21.365 79.5025 21.365 79.376 21.2375C79.1218 21.11 78.9953 20.9837 78.8676 20.73C78.8676 20.6025 78.7411 20.2225 78.7411 19.5875V15.6576L83.1857 15.6589Z" fill="#2E3192"/>
<path fill-rule="evenodd" clip-rule="evenodd" d="M94.8651 21.365C94.4844 21.365 94.2302 21.365 93.9772 21.2375C93.8495 21.11 93.723 20.9837 93.5965 20.73C93.5965 20.6025 93.4701 20.2225 93.4701 19.5875V11.3504C93.4701 10.7166 93.5965 10.3354 93.5965 10.2091C93.7243 9.95539 93.8508 9.82787 93.9772 9.70164C94.2315 9.57412 94.4844 9.44789 94.8651 9.44789H95.2458V9.19415H88.7712V9.44789H89.1519C89.5326 9.44789 89.7868 9.57541 90.0411 9.70164C90.1675 9.82787 90.294 9.9541 90.4218 10.0816C90.4218 10.3341 90.5483 10.7153 90.5483 11.3491V19.5875C90.5483 20.2225 90.4218 20.6025 90.4218 20.73C90.294 20.9824 90.1675 21.11 90.0411 21.2375C89.7868 21.365 89.5326 21.365 89.1519 21.365H88.7712V21.745H95.2458V21.365H94.8651Z" fill="#2E3192"/>
<path fill-rule="evenodd" clip-rule="evenodd" d="M101.594 16.0402L105.657 21.745H109.593V21.365C109.212 21.365 108.958 21.2375 108.705 20.9837C108.577 20.8575 108.324 20.6037 107.943 20.0975L104.897 15.7864C105.658 15.6589 106.293 15.2789 106.674 14.9002C107.31 14.3927 107.689 13.6328 107.689 12.6178C107.689 11.8578 107.435 11.2241 107.054 10.7166C106.546 10.0829 106.039 9.70293 105.277 9.44918C104.642 9.32166 103.5 9.19543 101.976 9.19543H96.1363V9.44918C96.6448 9.44918 97.152 9.5767 97.2797 9.70293C97.5327 9.82916 97.6604 9.95539 97.7869 10.0829C97.7869 10.2104 97.9147 10.7166 97.9147 11.3504V19.5888C97.9147 20.2238 97.7869 20.6037 97.7869 20.8575C97.6604 20.9837 97.5327 21.11 97.2797 21.2375C97.152 21.365 96.7713 21.365 96.1363 21.365V21.745H102.484V21.365C101.976 21.365 101.597 21.365 101.342 21.2375C101.216 21.11 100.962 20.9837 100.962 20.8575C100.834 20.6037 100.834 20.2238 100.834 19.5888V16.0402H101.594ZM101.72 9.82787C102.736 9.82787 103.499 10.0816 104.006 10.5891C104.387 10.9691 104.641 11.7303 104.641 12.6165C104.641 13.3778 104.515 13.8852 104.26 14.2652C104.006 14.6452 103.625 14.8989 103.245 15.1514C102.864 15.2789 102.228 15.4052 101.34 15.4052H100.831V9.82787H101.72Z" fill="#2E3192"/>
<path fill-rule="evenodd" clip-rule="evenodd" d="M115.941 9.95539C116.829 9.95539 117.464 9.95539 117.845 10.0829C118.481 10.2104 118.861 10.5904 119.241 10.9691C119.495 11.3504 119.749 11.9841 120.004 12.8715H120.258V9.19415H109.847V9.44789H110.228C110.608 9.44789 110.989 9.57541 111.243 9.82787C111.37 9.82787 111.498 10.0816 111.498 10.2091C111.624 10.3354 111.624 10.7166 111.624 11.3504V19.5888C111.624 20.2238 111.498 20.6037 111.498 20.7313C111.37 20.9837 111.243 21.1112 111.117 21.2388C110.863 21.3663 110.608 21.3663 110.229 21.3663H109.848V21.7463H120.64L121.275 17.6902H120.894C120.513 18.8314 120.006 19.7189 119.371 20.2263C118.609 20.7338 117.721 20.9863 116.577 20.9863H115.816C115.435 20.9863 115.181 20.9863 115.054 20.8601C114.928 20.7326 114.8 20.6063 114.674 20.4801C114.674 20.3513 114.547 19.9713 114.547 19.2114V15.6615C115.182 15.6615 115.689 15.789 115.944 15.9152C116.324 16.0427 116.578 16.4227 116.831 16.8014C117.086 17.3102 117.212 17.9439 117.212 18.5776H117.593V12.109H117.212C117.212 12.9965 116.958 13.7564 116.577 14.2652C116.196 14.7727 115.689 15.0265 114.8 15.0265H114.547V9.95539H115.941Z" fill="#2E3192"/>
<path fill-rule="evenodd" clip-rule="evenodd" d="M144.769 11.2022V18.0122C144.769 19.1122 144.769 19.7691 144.548 19.9893C144.548 20.4286 144.11 20.6488 143.889 20.8678C143.67 21.0881 143.009 21.0881 142.349 21.0881H141.689V21.7475H153.129V21.0881H152.248C151.808 21.0881 151.148 21.0881 150.93 20.8678C150.489 20.6488 150.268 20.4286 150.049 19.9893C150.049 19.7691 150.049 19.1109 150.049 18.0122V3.73408C150.049 2.63407 150.049 1.97717 150.049 1.7582C150.268 1.31768 150.489 1.09742 150.709 0.878454C151.15 0.656909 151.59 0.437939 152.248 0.437939H153.129V0H141.689V0.439227H142.349C143.009 0.439227 143.449 0.658197 143.889 0.879742C144.329 1.09871 144.548 1.31897 144.548 1.53794C144.769 1.97845 144.769 2.63665 144.769 3.73536V9.88583H137.07V3.73408C137.07 2.63407 137.07 1.97717 137.289 1.7582C137.51 1.31768 137.729 1.09742 137.95 0.878454C138.39 0.656909 138.83 0.437939 139.489 0.437939H140.149V0H128.71V0.439227H129.588C130.029 0.439227 130.689 0.658197 130.909 0.879742C131.349 1.09871 131.569 1.31897 131.789 1.53794C131.789 1.97845 131.789 2.63665 131.789 3.73536V18.0135C131.789 19.1135 131.789 19.7704 131.789 19.9906C131.569 20.4299 131.349 20.6501 131.129 20.8691C130.689 21.0893 130.249 21.0893 129.588 21.0893H128.71V21.7488H140.149V21.0893H139.489C138.83 21.0893 138.39 21.0893 137.95 20.8691C137.729 20.6501 137.289 20.4299 137.289 19.9906C137.07 19.7704 137.07 19.1122 137.07 18.0135V11.2022H144.769Z" fill="#2E3192"/>
<path fill-rule="evenodd" clip-rule="evenodd" d="M163.744 19.7176C163.872 20.0975 163.997 20.35 163.997 20.35C163.997 20.4788 163.997 20.6037 163.997 20.7313C163.997 20.9837 163.997 21.1112 163.87 21.2388C163.616 21.3663 163.362 21.3663 162.855 21.3663H162.6V21.7463H168.568V21.3663C168.187 21.3663 167.933 21.2388 167.68 20.985C167.426 20.8588 167.045 20.2251 166.664 19.2101L162.093 8.94169H161.967L157.523 18.9563C157.141 19.8425 156.761 20.4788 156.38 20.8588C156.127 21.1112 155.745 21.3663 155.364 21.3663V21.7463H159.427V21.3663C158.792 21.3663 158.411 21.2388 158.284 21.1125C158.031 20.985 157.775 20.7326 157.775 20.3513C157.775 20.0988 157.903 19.7189 158.029 19.3389L158.663 18.1964H162.98L163.744 19.7176ZM158.92 17.4351L160.825 13.2515L162.73 17.4351H158.92Z" fill="#2E3192"/>
<path fill-rule="evenodd" clip-rule="evenodd" d="M169.585 9.19415V12.6165H169.838C169.966 11.6041 170.348 10.9691 170.855 10.4629C171.236 10.0816 171.869 9.9541 172.758 9.9541H173.648V19.5875C173.648 20.2225 173.648 20.6025 173.52 20.73C173.392 20.9824 173.266 21.11 173.139 21.2375C172.885 21.365 172.631 21.365 172.251 21.365H171.869V21.745H178.345V21.365H177.964C177.71 21.365 177.329 21.365 177.202 21.2375C176.949 21.11 176.821 20.9837 176.821 20.73C176.694 20.6025 176.694 20.2225 176.694 19.5875V9.95539H177.582C178.216 9.95539 178.597 9.95539 178.851 10.0829C179.232 10.3354 179.612 10.5904 179.867 10.8441C179.993 11.2241 180.247 11.8578 180.5 12.6178H180.755V9.19415H169.585Z" fill="#2E3192"/>
<path fill-rule="evenodd" clip-rule="evenodd" d="M191.168 15.6589V19.5888C191.168 20.2238 191.04 20.6037 191.04 20.7313C190.912 20.9837 190.786 21.1112 190.659 21.2388C190.405 21.3663 190.151 21.3663 189.772 21.3663H189.39V21.7463H195.865V21.3663H195.485C195.104 21.3663 194.85 21.3663 194.597 21.2388C194.469 21.1112 194.343 20.985 194.216 20.7313C194.216 20.6037 194.088 20.2238 194.088 19.5888V11.3504C194.088 10.7166 194.216 10.3354 194.216 10.2091C194.343 9.95539 194.469 9.82787 194.597 9.70164C194.85 9.57412 195.105 9.44789 195.485 9.44789H195.865V9.19415H189.39V9.44789H189.772C190.152 9.44789 190.405 9.57541 190.659 9.70164C190.786 9.82787 190.912 9.9541 191.04 10.0816C191.04 10.3341 191.168 10.7153 191.168 11.3491V14.8989H186.725V11.3504C186.725 10.7166 186.725 10.3354 186.725 10.2091C186.852 9.95539 186.979 9.82787 187.105 9.70164C187.36 9.57412 187.614 9.44789 187.993 9.44789H188.375V9.19415H181.899V9.44789H182.28C182.661 9.44789 182.915 9.57541 183.168 9.70164C183.296 9.82787 183.422 9.9541 183.549 10.0816C183.676 10.3341 183.676 10.7153 183.676 11.3491V19.5875C183.676 20.2225 183.676 20.6025 183.549 20.73C183.422 20.9824 183.296 21.11 183.168 21.2375C182.915 21.365 182.659 21.365 182.28 21.365H181.899V21.745H188.375V21.365H187.993C187.612 21.365 187.36 21.365 187.23 21.2375C186.979 21.11 186.851 20.9837 186.723 20.73C186.723 20.6025 186.723 20.2225 186.723 19.5875V15.6576L191.168 15.6589Z" fill="#2E3192"/>
<path fill-rule="evenodd" clip-rule="evenodd" d="M204.753 19.7176C204.881 20.0975 205.006 20.35 205.006 20.35C205.134 20.4788 205.134 20.6037 205.134 20.7313C205.134 20.9837 205.006 21.1112 204.881 21.2388C204.753 21.3663 204.373 21.3663 203.866 21.3663H203.611V21.7463H209.707V21.3663C209.326 21.3663 209.072 21.2388 208.819 20.985C208.564 20.8588 208.184 20.2251 207.802 19.2101L203.232 8.94169H203.104L198.534 18.9563C198.154 19.8425 197.772 20.4788 197.517 20.8588C197.266 21.1112 196.884 21.3663 196.375 21.3663V21.7463H200.564V21.3663C199.931 21.3663 199.55 21.2388 199.296 21.1125C199.043 20.985 198.915 20.7326 198.915 20.3513C198.915 20.0988 199.043 19.7189 199.168 19.3389L199.676 18.1964H204.12L204.753 19.7176ZM200.056 17.4351L201.959 13.2515L203.738 17.4351H200.056Z" fill="#2E3192"/>
<path fill-rule="evenodd" clip-rule="evenodd" d="M225.449 9.19415V9.44789C225.957 9.57541 226.21 9.57541 226.463 9.70164C226.591 9.82787 226.717 10.0816 226.717 10.3341C226.717 10.5878 226.589 10.7153 226.589 10.9678C226.589 11.0953 226.462 11.4753 226.209 12.109L224.177 17.4351L221.892 11.4753C221.638 10.7153 221.511 10.3341 221.511 10.2091C221.511 10.0816 221.511 9.95539 221.638 9.82787C221.638 9.70164 221.765 9.70164 221.892 9.57541C222.018 9.57541 222.4 9.44789 222.78 9.44789V9.19415H216.812V9.44789C217.193 9.44789 217.447 9.57541 217.7 9.70164C217.828 9.82787 218.081 9.9541 218.21 10.2091C218.336 10.4629 218.589 10.9691 218.844 11.6041L219.352 12.9978L217.321 17.6889L214.909 11.6041C214.656 10.8429 214.4 10.3354 214.4 10.2091C214.4 9.95539 214.528 9.82787 214.654 9.70164C214.781 9.57412 215.035 9.57412 215.542 9.44789V9.19415H210.083V9.44789C210.464 9.57541 210.718 9.70164 210.971 9.82787C211.099 10.0816 211.352 10.7153 211.859 11.7303L215.922 22H216.303L219.73 13.8865L222.777 22H223.159L227.094 11.6054C227.475 10.7179 227.602 10.3367 227.602 10.2104C227.73 9.95667 227.983 9.82916 228.111 9.70293C228.239 9.57541 228.492 9.57541 228.746 9.44918V9.19415H225.449Z" fill="#2E3192"/>
<path fill-rule="evenodd" clip-rule="evenodd" d="M237.382 19.7176C237.51 20.0975 237.636 20.35 237.636 20.35C237.763 20.4788 237.763 20.6037 237.763 20.7313C237.763 20.9837 237.636 21.1112 237.51 21.2388C237.383 21.3663 237.001 21.3663 236.494 21.3663H236.24V21.7463H242.335V21.3663C241.955 21.3663 241.574 21.2388 241.447 20.985C241.193 20.8588 240.812 20.2251 240.432 19.2101L235.861 8.94169H235.734L231.163 18.9563C230.782 19.8425 230.402 20.4788 230.147 20.8588C229.894 21.1112 229.512 21.3663 229.005 21.3663V21.7463H233.194V21.3663C232.559 21.3663 232.179 21.2388 231.924 21.1125C231.672 20.985 231.544 20.7326 231.544 20.3513C231.544 20.0988 231.672 19.7189 231.798 19.3389L232.305 18.1964H236.749L237.382 19.7176ZM232.685 17.4351L234.589 13.2515L236.367 17.4351H232.685Z" fill="#2E3192"/>
<path fill-rule="evenodd" clip-rule="evenodd" d="M252.238 9.19415V9.44789C252.746 9.57541 253.126 9.70164 253.38 9.82787C253.508 9.95539 253.634 10.0816 253.634 10.2091C253.634 10.4629 253.253 11.0953 252.746 12.1103L250.461 15.7864L248.175 11.7303C247.667 10.8441 247.414 10.2091 247.414 9.95539C247.414 9.82787 247.54 9.82787 247.667 9.70293C247.794 9.57541 248.047 9.44918 248.428 9.44918H248.682V9.19415H242.715V9.44789C243.095 9.44789 243.476 9.57541 243.73 9.82787C243.858 9.95539 244.365 10.5891 244.874 11.7303L247.919 17.0552V19.59C247.919 20.2251 247.793 20.605 247.793 20.7326C247.665 20.985 247.539 21.1125 247.412 21.24C247.158 21.3676 246.904 21.3676 246.523 21.3676H245.889V21.7475H252.871V21.3676H252.238C251.857 21.3676 251.603 21.3676 251.35 21.24C251.221 21.1125 251.095 20.9863 250.968 20.7326C250.968 20.605 250.841 20.2251 250.841 19.59V16.5489L253.634 11.9854C254.268 10.8441 254.776 10.0829 255.03 9.82916C255.283 9.70293 255.664 9.5767 256.046 9.44918V9.19415H252.238Z" fill="#2E3192"/>
<path fill-rule="evenodd" clip-rule="evenodd" d="M266.69 21.5595C266.515 21.5595 266.339 21.5595 266.164 21.4719C265.987 21.3843 265.901 21.2954 265.901 21.1215C265.813 21.034 265.813 20.7712 265.813 20.332V14.631C265.813 14.1918 265.813 13.929 265.901 13.8427C265.901 13.6663 265.987 13.5787 266.164 13.4924C266.252 13.4048 266.515 13.3159 266.69 13.3159H267.041V13.1407H262.473V13.3159H262.824C263.001 13.3159 263.264 13.4035 263.352 13.4924C263.527 13.5787 263.615 13.6676 263.615 13.7552C263.703 13.9303 263.703 14.1931 263.703 14.6323V20.3333C263.703 20.7725 263.703 21.0352 263.615 21.1228C263.615 21.298 263.527 21.3856 263.352 21.4732C263.264 21.5608 263.001 21.5608 262.824 21.5608H262.473V21.8235H267.041V21.5608L266.69 21.5595Z" fill="#2E3192"/>
<path fill-rule="evenodd" clip-rule="evenodd" d="M267.569 13.1395V13.3146C267.833 13.4022 268.008 13.4022 268.096 13.4911C268.271 13.5774 268.447 13.7539 268.622 13.929L268.799 14.1918V20.332C268.799 20.7712 268.711 21.1215 268.536 21.2967C268.359 21.4732 268.008 21.5608 267.482 21.5608V21.8235H270.643V21.5608H270.38C270.117 21.5608 269.854 21.4732 269.59 21.2967C269.413 21.1215 269.239 20.7712 269.239 20.332V14.8075L275.125 21.9987H275.389V14.8075C275.389 14.3683 275.389 14.1055 275.476 13.929C275.563 13.7539 275.652 13.5787 275.74 13.5787C275.915 13.4924 276.091 13.4035 276.53 13.3159V13.1407H273.631V13.3159C274.07 13.3159 274.421 13.4924 274.685 13.7552C274.772 13.9303 274.861 14.2807 274.861 14.8075V18.49L270.643 13.1407L267.569 13.1395Z" fill="#2E3192"/>
<path fill-rule="evenodd" clip-rule="evenodd" d="M285.313 12.963C285.313 13.1395 285.225 13.3133 285.136 13.4022C284.961 13.4898 284.873 13.5774 284.785 13.5774C284.61 13.5774 284.434 13.4911 283.995 13.3146C283.292 13.0519 282.678 12.9643 282.063 12.9643C281.274 12.9643 280.481 13.1407 279.779 13.5787C278.988 13.929 278.461 14.5434 278.023 15.2454C277.583 16.035 277.319 16.8246 277.319 17.6142C277.319 18.4025 277.583 19.1045 277.935 19.8064C278.287 20.5084 278.902 21.034 279.604 21.4732C280.307 21.8235 281.097 21.9987 282.063 21.9987C282.767 21.9987 283.381 21.9124 283.909 21.6484C284.434 21.3856 284.962 21.034 285.401 20.5084V19.8064C284.874 20.4208 284.434 20.7712 283.995 21.034C283.556 21.2967 283.029 21.3843 282.502 21.3843C281.8 21.3843 281.274 21.2091 280.833 20.9464C280.482 20.596 280.131 20.0679 279.955 19.4548C279.779 18.8404 279.691 18.1397 279.691 17.3501C279.691 16.5605 279.779 15.8585 280.042 15.1566C280.306 14.7186 280.569 14.2794 281.008 13.929C281.536 13.6663 281.974 13.4911 282.501 13.4911C283.204 13.4911 283.731 13.7539 284.257 14.1055C284.784 14.5434 285.136 15.1566 285.312 15.9474H285.575V12.9656H285.313V12.963Z" fill="#2E3192"/>
<path fill-rule="evenodd" clip-rule="evenodd" d="M287.156 20.1555C286.98 20.3307 286.893 20.5947 286.893 20.9451C286.893 21.2078 286.98 21.4706 287.156 21.6458C287.419 21.8223 287.596 21.9961 287.946 21.9961C288.21 21.9961 288.473 21.821 288.649 21.6458C288.912 21.4706 289 21.2078 289 20.9451C289 20.5947 288.912 20.3294 288.649 20.1555C288.473 19.9803 288.21 19.8052 287.946 19.8052C287.596 19.8052 287.419 19.9816 287.156 20.1555Z" fill="#2E3192"/>
</svg>
