<svg width="187" height="58" viewBox="0 0 187 58" fill="none" xmlns="http://www.w3.org/2000/svg">
<path d="M23.3558 20.662V26.8682H38.3977C37.9372 30.3497 36.7605 32.8978 34.9698 34.689C32.7698 36.8586 29.3419 39.2301 23.3558 39.2301C14.0953 39.2301 6.85581 31.8634 6.85581 22.7308C6.85581 13.5981 14.0953 6.2314 23.3558 6.2314C28.3442 6.2314 32.0023 8.17399 34.6884 10.6716L39.114 6.30709C35.3791 2.72466 30.3651 0 23.3558 0C10.6674 0 0 10.1923 0 22.7055C0 35.2188 10.6674 45.411 23.3558 45.411C30.2116 45.411 35.3791 43.191 39.4209 39.0535C43.5651 34.9665 44.8698 29.1892 44.8698 24.5472C44.8698 23.1092 44.7674 21.7721 44.5372 20.662H23.3558Z" fill="#4285F4"/>
<path d="M63.6721 15.6164C55.4605 15.6164 48.7581 21.7721 48.7581 30.274C48.7581 38.7003 55.4605 44.9317 63.6721 44.9317C71.8837 44.9317 78.586 38.7255 78.586 30.274C78.586 21.7721 71.8837 15.6164 63.6721 15.6164ZM63.6721 39.1544C59.1698 39.1544 55.2814 35.4963 55.2814 30.274C55.2814 25.0013 59.1698 21.3936 63.6721 21.3936C68.1744 21.3936 72.0628 25.0013 72.0628 30.274C72.0628 35.4963 68.1744 39.1544 63.6721 39.1544Z" fill="#EA4335"/>
<path d="M136.784 18.896H136.553C135.095 17.1805 132.281 15.6164 128.726 15.6164C121.307 15.6164 114.835 21.9991 114.835 30.274C114.835 38.4985 121.307 44.9317 128.726 44.9317C132.281 44.9317 135.095 43.3675 136.553 41.6016H136.784V43.6451C136.784 49.2458 133.74 52.2479 128.853 52.2479C124.863 52.2479 122.381 49.4224 121.358 47.0257L115.679 49.3467C117.316 53.2318 121.64 58 128.853 58C136.502 58 142.974 53.5598 142.974 42.7368V16.3732H136.784V18.896ZM129.288 39.1544C124.786 39.1544 121.358 35.3702 121.358 30.274C121.358 25.1022 124.786 21.3936 129.288 21.3936C133.74 21.3936 137.219 25.1779 137.219 30.3245C137.244 35.4458 133.74 39.1544 129.288 39.1544Z" fill="#4285F4"/>
<path d="M96.9279 15.6164C88.7163 15.6164 82.0139 21.7721 82.0139 30.274C82.0139 38.7003 88.7163 44.9317 96.9279 44.9317C105.14 44.9317 111.842 38.7255 111.842 30.274C111.842 21.7721 105.14 15.6164 96.9279 15.6164ZM96.9279 39.1544C92.4256 39.1544 88.5372 35.4963 88.5372 30.274C88.5372 25.0013 92.4256 21.3936 96.9279 21.3936C101.43 21.3936 105.319 25.0013 105.319 30.274C105.319 35.4963 101.43 39.1544 96.9279 39.1544Z" fill="#FBBC05"/>
<path d="M148.091 0.605481H154.512V44.9317H148.091V0.605481Z" fill="#34A853"/>
<path d="M174.337 39.1544C171.012 39.1544 168.658 37.6659 167.123 34.7142L187 26.6159L186.335 24.9508C185.107 21.6712 181.321 15.6164 173.621 15.6164C165.972 15.6164 159.602 21.545 159.602 30.274C159.602 38.4985 165.895 44.9317 174.337 44.9317C181.142 44.9317 185.081 40.8195 186.719 38.448L181.654 35.1179C179.965 37.5398 177.663 39.1544 174.337 39.1544ZM173.877 21.1161C176.512 21.1161 178.763 22.4532 179.505 24.3454L166.074 29.8199C166.074 23.6642 170.5 21.1161 173.877 21.1161Z" fill="#EA4335"/>
</svg>
