<svg width="183" height="56" viewBox="0 0 183 56" fill="none" xmlns="http://www.w3.org/2000/svg">
<path d="M113.53 43.7937C102.895 51.7533 87.4812 56 74.2101 56C55.6018 56 38.8496 49.0111 26.1759 37.3873C25.1801 36.4732 26.0723 35.2275 27.2672 35.9393C40.9446 44.0202 57.8561 48.8817 75.3253 48.8817C87.1068 48.8817 100.067 46.4065 111.984 41.27C113.785 40.4934 115.29 42.4671 113.53 43.7937Z" fill="#FF9900"/>
<path d="M117.951 38.6572C116.596 36.8938 108.965 37.8241 105.54 38.2366C104.496 38.366 104.337 37.4439 105.277 36.7806C111.355 32.4368 121.328 33.6906 122.491 35.1466C123.654 36.6107 122.189 46.7624 116.477 51.6077C115.601 52.3519 114.764 51.9555 115.155 50.9687C116.437 47.7169 119.313 40.4287 117.951 38.6572Z" fill="#FF9900"/>
<path d="M105.779 6.11527V1.89282C105.779 1.25379 106.257 0.825076 106.83 0.825076H125.447C126.044 0.825076 126.522 1.26188 126.522 1.89282V5.50859C126.514 6.11527 126.012 6.90799 125.12 8.16178L115.473 22.1476C119.058 22.0586 122.842 22.6006 126.092 24.4611C126.825 24.8817 127.024 25.4965 127.08 26.1031V30.6087C127.08 31.2235 126.41 31.9434 125.709 31.5713C119.982 28.5217 112.375 28.1901 106.042 31.6036C105.396 31.9596 104.719 31.2477 104.719 30.633V26.3539C104.719 25.6663 104.727 24.4934 105.404 23.4499L116.581 7.17492H106.854C106.257 7.17492 105.779 6.74621 105.779 6.11527Z" fill="#221F1F"/>
<path d="M37.8698 32.4611H32.206C31.6643 32.4206 31.2342 32.0081 31.1944 31.4823V1.96563C31.1944 1.37513 31.6803 0.905967 32.2857 0.905967H37.567C38.1167 0.930218 38.5548 1.35895 38.5947 1.89282V5.75127H38.6982C40.0763 2.02224 42.6652 0.283114 46.1543 0.283114C49.6991 0.283114 51.9136 2.02224 53.5068 5.75127C54.8769 2.02224 57.9915 0.283114 61.3293 0.283114C63.7031 0.283114 66.2999 1.27806 67.8852 3.51062C69.6775 5.99393 69.3111 9.60162 69.3111 12.7644L69.3031 31.3933C69.3031 31.9838 68.8172 32.4611 68.2118 32.4611H62.556C61.9904 32.4206 61.5364 31.9596 61.5364 31.3933V15.7492C61.5364 14.5035 61.6479 11.3974 61.377 10.2164C60.9549 8.23458 59.6883 7.67644 58.0473 7.67644C56.6772 7.67644 55.2433 8.60667 54.6618 10.095C54.0803 11.5834 54.1361 14.0748 54.1361 15.7492V31.3933C54.1361 31.9838 53.6501 32.4611 53.0447 32.4611H47.389C46.8154 32.4206 46.3693 31.9596 46.3693 31.3933L46.3614 15.7492C46.3614 12.457 46.8951 7.61173 42.8723 7.61173C38.8018 7.61173 38.9611 12.3357 38.9611 15.7492V31.3933C38.9611 31.9838 38.4752 32.4611 37.8698 32.4611Z" fill="#221F1F"/>
<path d="M142.549 0.283114C150.953 0.283114 155.502 7.61173 155.502 16.9302C155.502 25.9333 150.475 33.0758 142.549 33.0758C134.297 33.0758 129.804 25.7472 129.804 16.6148C129.804 7.42568 134.352 0.283114 142.549 0.283114ZM142.597 6.30941C138.423 6.30941 138.16 12.0849 138.16 15.6845C138.16 19.2922 138.104 26.9929 142.549 26.9929C146.938 26.9929 147.146 20.7806 147.146 16.9949C147.146 14.5035 147.042 11.5268 146.301 9.16481C145.664 7.11022 144.397 6.30941 142.597 6.30941Z" fill="#221F1F"/>
<path d="M166.399 32.4611H160.759C160.194 32.4206 159.74 31.9596 159.74 31.3933L159.732 1.86855C159.779 1.32659 160.249 0.905967 160.823 0.905967H166.073C166.566 0.930218 166.973 1.26997 167.084 1.73104V6.24469H167.188C168.773 2.20829 170.995 0.283114 174.907 0.283114C177.448 0.283114 179.925 1.21335 181.518 3.76137C183 6.12336 183 10.095 183 12.9505V31.5308C182.936 32.0485 182.466 32.4611 181.909 32.4611H176.229C175.711 32.4206 175.281 32.0324 175.225 31.5308V15.4985C175.225 12.271 175.592 7.54702 171.68 7.54702C170.302 7.54702 169.036 8.48534 168.407 9.909C167.61 11.7128 167.506 13.5086 167.506 15.4985V31.3933C167.498 31.9838 167.005 32.4611 166.399 32.4611Z" fill="#221F1F"/>
<path d="M90.9384 18.362V17.1163C86.8439 17.1163 82.5185 18.0061 82.5185 22.908C82.5185 25.3913 83.785 27.0738 85.9597 27.0738C87.5529 27.0738 88.9788 26.0789 89.8789 24.4611C90.9941 22.4712 90.9384 20.6026 90.9384 18.362ZM96.6499 32.3802C96.2755 32.7199 95.7338 32.7442 95.3117 32.5177C93.4317 30.9323 93.0971 30.1962 92.0616 28.6835C88.9549 31.9029 86.7563 32.8655 82.7256 32.8655C77.962 32.8655 74.2499 29.8807 74.2499 23.9029C74.2499 19.2356 76.7432 16.0566 80.288 14.5035C83.3628 13.1284 87.6564 12.8857 90.9384 12.5056V11.7614C90.9384 10.3943 91.042 8.77654 90.2533 7.59555C89.5603 6.53589 88.238 6.09909 87.0749 6.09909C84.9162 6.09909 82.9884 7.22346 82.5185 9.55308C82.4229 10.0708 82.0485 10.5804 81.5387 10.6047L76.0422 10.0061C75.5802 9.90091 75.0704 9.52073 75.1978 8.80081C76.4644 2.03843 82.4786 0 87.8636 0C90.6198 0 94.2203 0.744186 96.395 2.8635C99.1512 5.47624 98.8883 8.96259 98.8883 12.7563V21.7189C98.8883 24.4125 99.9876 25.5935 101.023 27.0495C101.39 27.5672 101.469 28.1901 101.007 28.5784C99.8522 29.5571 97.797 31.3772 96.6658 32.3964L96.6499 32.3802Z" fill="#221F1F"/>
<path d="M16.6885 18.362V17.1163C12.594 17.1163 8.26857 18.0061 8.26857 22.908C8.26857 25.3913 9.53515 27.0738 11.7098 27.0738C13.303 27.0738 14.7289 26.0789 15.629 24.4611C16.7443 22.4712 16.6885 20.6026 16.6885 18.362ZM22.4 32.3802C22.0256 32.7199 21.484 32.7442 21.0618 32.5177C19.1818 30.9323 18.8472 30.1962 17.8117 28.6835C14.705 31.9029 12.5064 32.8655 8.47568 32.8655C3.71209 32.8655 0 29.8807 0 23.9029C0 19.2356 2.49332 16.0566 6.03813 14.5035C9.11296 13.1284 13.4066 12.8857 16.6885 12.5056V11.7614C16.6885 10.3943 16.7921 8.77654 16.0034 7.59555C15.3104 6.53589 13.9881 6.09909 12.8251 6.09909C10.6663 6.09909 8.73856 7.22346 8.26857 9.55308C8.17298 10.0708 7.79859 10.5804 7.28877 10.6047L1.79232 10.0061C1.3303 9.90091 0.820483 9.52073 0.947937 8.80081C2.21451 2.03843 8.22874 0 13.6137 0C16.3699 0 19.9704 0.744186 22.1451 2.8635C24.9013 5.47624 24.6384 8.96259 24.6384 12.7563V21.7189C24.6384 24.4125 25.7377 25.5935 26.7733 27.0495C27.1397 27.5672 27.2194 28.1901 26.7574 28.5784C25.6023 29.5571 23.5471 31.3772 22.416 32.3964L22.4 32.3802Z" fill="#221F1F"/>
</svg>
