<svg width="18" height="18" viewBox="0 0 18 18" fill="none" xmlns="http://www.w3.org/2000/svg">
<circle cx="9" cy="9" r="9" fill="url(#paint0_linear_4974_13)"/>
<path d="M10.3338 11.8176L11.281 10.87C11.4086 10.744 11.57 10.6577 11.7456 10.6217C11.9213 10.5856 12.1036 10.6014 12.2705 10.667L13.4249 11.1281C13.5935 11.1966 13.7382 11.3135 13.8405 11.464C13.9428 11.6146 13.9983 11.7921 14 11.9741V14.0893C13.999 14.2132 13.973 14.3355 13.9235 14.4491C13.874 14.5626 13.802 14.6649 13.712 14.7499C13.6219 14.8349 13.5155 14.9007 13.3994 14.9435C13.2832 14.9863 13.1595 15.0051 13.0359 14.9988C4.94656 14.4954 3.31432 7.64231 3.00563 5.01952C2.9913 4.89072 3.00439 4.76035 3.04405 4.63698C3.0837 4.51361 3.14902 4.40003 3.2357 4.30373C3.32238 4.20742 3.42846 4.13057 3.54696 4.07822C3.66546 4.02587 3.7937 3.99922 3.92324 4.00002H5.96565C6.14791 4.00056 6.32584 4.05563 6.47655 4.15816C6.62727 4.26069 6.74387 4.40597 6.81137 4.57534L7.27229 5.73021C7.34006 5.89649 7.35735 6.07906 7.322 6.25511C7.28665 6.43117 7.20024 6.5929 7.07355 6.72011L6.12634 7.66769C6.12634 7.66769 6.67183 11.3608 10.3338 11.8176Z" fill="black"/>
<defs>
<linearGradient id="paint0_linear_4974_13" x1="9" y1="0" x2="9" y2="18" gradientUnits="userSpaceOnUse">
<stop stop-color="#00FB55"/>
<stop offset="1" stop-color="#00B7DF"/>
</linearGradient>
</defs>
</svg>
