<svg width="62" height="64" viewBox="0 0 62 64" fill="none" xmlns="http://www.w3.org/2000/svg">
<path opacity="0.4" d="M58.1761 62.3999C58.1761 63.2959 57.4721 63.9999 56.5761 63.9999H1.60001C0.704003 63.9999 0 63.2959 0 62.3999C0 49.1518 13.056 38.3998 29.0883 38.3998C32.3843 38.3998 35.5843 38.8478 38.5283 39.7118C36.6403 41.9518 35.4883 44.8638 35.4883 47.9998C35.4883 50.3998 36.16 52.6718 37.344 54.5918C37.984 55.6799 38.816 56.6719 39.776 57.5039C42.016 59.5519 44.9923 60.7999 48.2883 60.7999C51.8724 60.7999 55.1044 59.3279 57.4084 56.9599C57.9204 58.6879 58.1761 60.5119 58.1761 62.3999Z" fill="#0066FF"/>
<path d="M60.706 44.928C60.386 43.68 59.874 42.432 59.17 41.312C58.69 40.48 58.05 39.68 57.346 38.944C55.042 36.64 52.034 35.392 48.9619 35.232C45.4739 35.008 41.9219 36.288 39.2339 38.944C36.7059 41.472 35.4259 44.832 35.4899 48.192C35.5219 51.3921 36.8019 54.5921 39.2339 57.0561C40.9299 58.7521 43.0099 59.8721 45.2179 60.3841C46.4339 60.7041 47.7139 60.8321 48.9939 60.7361C52.034 60.6081 55.01 59.3921 57.346 57.0561C60.642 53.7601 61.762 49.12 60.706 44.928ZM53.41 53.1201C52.482 54.0481 50.946 54.0481 50.018 53.1201L48.2579 51.3601L46.5619 53.0561C45.6339 53.9841 44.0979 53.9841 43.1699 53.0561C42.2419 52.0961 42.2419 50.5921 43.1699 49.664L44.8659 47.968L43.2339 46.368C42.3059 45.408 42.3059 43.904 43.2339 42.944C44.1939 42.016 45.6979 42.016 46.6579 42.944L48.2579 44.576L49.954 42.88C50.882 41.952 52.386 41.952 53.346 42.88C54.274 43.808 54.274 45.344 53.346 46.272L51.65 47.968L53.41 49.7281C54.338 50.6561 54.338 52.1921 53.41 53.1201Z" fill="#FF0000"/>
<path opacity="0.4" d="M29.0876 32.0001C37.9241 32.0001 45.0877 24.8366 45.0877 16.0001C45.0877 7.16349 37.9241 0 29.0876 0C20.251 0 13.0876 7.16349 13.0876 16.0001C13.0876 24.8366 20.251 32.0001 29.0876 32.0001Z" fill="#0066FF"/>
</svg>
