<svg width="46" height="64" viewBox="0 0 46 64" fill="none" xmlns="http://www.w3.org/2000/svg">
<path opacity="0.4" d="M22.525 0C14.141 0 7.32495 6.81601 7.32495 15.2C7.32495 23.424 13.757 30.08 22.141 30.368C22.397 30.336 22.653 30.336 22.845 30.368C22.909 30.368 22.941 30.368 23.005 30.368C23.037 30.368 23.037 30.368 23.069 30.368C31.261 30.08 37.693 23.424 37.725 15.2C37.725 6.81601 30.909 0 22.525 0Z" fill="#0066FF"/>
<path d="M38.7839 38.88C29.8559 32.928 15.296 32.928 6.30401 38.88C2.24 41.6 0 45.28 0 49.216C0 53.152 2.24 56.8 6.27201 59.488C10.752 62.496 16.6399 64.0001 22.5279 64.0001C28.4159 64.0001 34.3039 62.496 38.7839 59.488C42.8159 56.768 45.0559 53.12 45.0559 49.152C45.0239 45.216 42.8159 41.568 38.7839 38.88Z" fill="#0066FF"/>
</svg>
