<svg width="64" height="64" viewBox="0 0 64 64" fill="none" xmlns="http://www.w3.org/2000/svg">
<path opacity="0.4" d="M64 30.4761V45.7142C64 54.8571 57.9048 60.9523 48.7619 60.9523H20.2057C21.1505 60.1599 21.9733 59.1847 22.6133 58.0876C23.7409 56.259 24.3809 54.0952 24.3809 51.8095C24.3809 45.0742 18.9257 39.619 12.1905 39.619C8.53332 39.619 5.27237 41.2342 3.04761 43.7638V30.4761C3.04761 22.1866 8.0457 16.3961 15.8171 15.4209C16.6095 15.299 17.4324 15.238 18.2857 15.238H48.7619C49.5543 15.238 50.3162 15.2685 51.0476 15.3904C58.9105 16.3047 64 22.1257 64 30.4761Z" fill="#0066FF"/>
<path d="M51.0461 15.3904C50.3147 15.2685 49.5528 15.238 48.7604 15.238H18.2841C17.4307 15.238 16.6079 15.299 15.8155 15.4209C16.2422 14.5676 16.8517 13.7753 17.5832 13.0438L27.488 3.10857C31.6633 -1.03619 38.4287 -1.03619 42.6039 3.10857L47.9372 8.50274C49.8877 10.4227 50.9242 12.8609 51.0461 15.3904Z" fill="#16B930"/>
<path d="M64 32H54.8571C51.5048 32 48.7619 34.7429 48.7619 38.0952C48.7619 41.4476 51.5048 44.1905 54.8571 44.1905H64" fill="#0066FF"/>
<path d="M12.1905 39.619C8.53333 39.619 5.27238 41.2343 3.04762 43.7638C1.1581 45.9276 0 48.7314 0 51.8095C0 54.0952 0.640061 56.259 1.76768 58.0876C3.87054 61.6228 7.74095 64 12.1905 64C15.2686 64 18.0724 62.8724 20.2057 60.9524C21.1505 60.16 21.9733 59.1847 22.6133 58.0876C23.7409 56.259 24.381 54.0952 24.381 51.8095C24.381 45.0743 18.9257 39.619 12.1905 39.619ZM17.0666 56.6247C16.6095 57.0819 16.0305 57.2952 15.4515 57.2952C14.8724 57.2952 14.2933 57.0819 13.8361 56.6247L12.221 55.0095L10.5448 56.6857C10.0877 57.1428 9.50854 57.3562 8.92949 57.3562C8.35045 57.3562 7.77149 57.1428 7.31435 56.6857C6.43054 55.8019 6.43054 54.339 7.31435 53.4552L8.99051 51.779L7.37518 50.1638C6.49137 49.28 6.49137 47.8171 7.37518 46.9333C8.25899 46.0495 9.72184 46.0495 10.6057 46.9333L12.221 48.5485L13.7448 47.0247C14.6286 46.1409 16.0915 46.1409 16.9753 47.0247C17.8591 47.9085 17.8591 49.3714 16.9753 50.2552L15.4515 51.779L17.0666 53.3943C17.9504 54.2781 17.9504 55.7104 17.0666 56.6247Z" fill="#FF0000"/>
</svg>
