<svg width="64" height="64" viewBox="0 0 64 64" fill="none" xmlns="http://www.w3.org/2000/svg">
<path opacity="0.4" d="M45.4306 0H18.6013C6.94746 0 0 6.944 0 18.592V45.376C0 57.056 6.94746 64 18.6013 64H45.3986C57.0524 64 63.9999 57.056 63.9999 45.408V18.592C64.0319 6.944 57.0844 0 45.4306 0Z" fill="#0066FF"/>
<path d="M47.6388 33.504C47.6388 32.256 46.6463 31.264 45.3977 31.264C44.149 31.264 43.1565 32.256 43.1565 33.504V34.08L34.4482 25.3761C33.968 24.8961 33.3276 24.6721 32.6553 24.7361C31.983 24.8001 31.3747 25.1521 31.0225 25.728L27.7569 30.592L20.2011 22.9761C19.3366 22.1121 17.9279 22.1121 17.0315 22.9761C16.1671 23.8401 16.1671 25.2481 17.0315 26.144L26.5723 35.68C27.0525 36.16 27.6928 36.384 28.3652 36.32C29.0375 36.256 29.6458 35.904 29.998 35.328L33.2636 30.464L40.019 37.216H39.4427C38.1941 37.216 37.2016 38.208 37.2016 39.456C37.2016 40.704 38.1941 41.696 39.4427 41.696H45.3977C45.6858 41.696 45.9739 41.632 46.2621 41.536C46.8064 41.312 47.2546 40.864 47.4787 40.32C47.6068 40.032 47.6388 39.744 47.6388 39.456V33.504Z" fill="white"/>
</svg>
