<svg width="18" height="18" viewBox="0 0 18 18" fill="none" xmlns="http://www.w3.org/2000/svg">
<circle cx="9" cy="9" r="9" fill="url(#paint0_linear_4974_13)"/>
<path d="M10.6671 11.1069L11.5282 10.2455C11.6442 10.1309 11.7909 10.0525 11.9506 10.0197C12.1103 9.98693 12.276 10.0012 12.4277 10.0609L13.4772 10.4801C13.6305 10.5423 13.762 10.6486 13.855 10.7855C13.948 10.9223 13.9985 11.0837 14 11.2492V13.1721C13.9991 13.2847 13.9754 13.3959 13.9304 13.4991C13.8854 13.6024 13.82 13.6954 13.7381 13.7726C13.6563 13.8499 13.5596 13.9098 13.454 13.9486C13.3483 13.9875 13.2359 14.0046 13.1235 13.9989C5.7696 13.5413 4.28574 7.31119 4.00512 4.92684C3.99209 4.80975 4.00399 4.69123 4.04004 4.57907C4.07609 4.46692 4.13547 4.36367 4.21427 4.27611C4.29307 4.18856 4.38951 4.1187 4.49724 4.07111C4.60497 4.02352 4.72155 3.99929 4.83931 4.00002H6.69605C6.86174 4.00051 7.02349 4.05057 7.1605 4.14378C7.29751 4.23699 7.40352 4.36907 7.46489 4.52304L7.8839 5.57292C7.94551 5.72408 7.96122 5.89006 7.92909 6.0501C7.89696 6.21015 7.8184 6.35718 7.70323 6.47282L6.84213 7.33427C6.84213 7.33427 7.33803 10.6916 10.6671 11.1069Z" fill="white"/>
<defs>
<linearGradient id="paint0_linear_4974_13" x1="9" y1="0" x2="9" y2="18" gradientUnits="userSpaceOnUse">
<stop stop-color="#00FB55"/>
<stop offset="1" stop-color="#00B7DF"/>
</linearGradient>
</defs>
</svg>
