<svg width="1191" height="1328" viewBox="0 0 1191 1328" fill="none" xmlns="http://www.w3.org/2000/svg">
<g opacity="0.4">
<path d="M674.567 1325.79L1217 1240.01C1256.73 1234.68 1293.19 1219.86 1322.59 1197.11C1351.99 1174.35 1373.26 1144.48 1384.2 1110.59L1523.65 679.448C1534.66 645.212 1534.78 608.16 1524 572.17C1513.21 536.18 1491.92 502.574 1462.34 474.869L1083.01 75.1734C1022.81 18.4367 941.242 -7.94744 863.546 2.09137L313.265 105.331C235.588 115.31 170.674 164.982 148.183 234.522L8.75555 665.608L5.19451 677.792C-1.87299 706.086 -1.72675 735.954 5.62297 765.316C12.9728 794.678 27.3493 822.827 47.751 847.803L53.6742 854.622L54.0215 855.192C56.8725 859.418 60.1913 863.406 63.9237 867.09L453.461 1254.26C482.13 1281.29 517.45 1302.03 556.125 1314.54C594.8 1327.05 635.571 1330.92 674.636 1325.81L674.567 1325.79Z" fill="url(#paint0_linear_24_2)"/>
<path d="M674.567 1325.79L1217 1240.01C1256.73 1234.68 1293.19 1219.86 1322.59 1197.11C1351.99 1174.35 1373.26 1144.48 1384.2 1110.59L1523.65 679.448C1534.66 645.212 1534.78 608.16 1524 572.17C1513.21 536.18 1491.92 502.574 1462.34 474.869L1083.01 75.1734C1022.81 18.4367 941.242 -7.94744 863.546 2.09137L313.265 105.331C235.588 115.31 170.674 164.982 148.183 234.522L8.75555 665.608L5.19451 677.792C-1.87299 706.086 -1.72675 735.954 5.62297 765.316C12.9728 794.678 27.3493 822.827 47.751 847.803L53.6742 854.622L54.0215 855.192C56.8725 859.418 60.1913 863.406 63.9237 867.09L453.461 1254.26C482.13 1281.29 517.45 1302.03 556.125 1314.54C594.8 1327.05 635.571 1330.92 674.636 1325.81L674.567 1325.79Z" fill="url(#paint1_linear_24_2)"/>
<path d="M1058.44 600.598L1211.63 572.813C1222.85 571.057 1233.19 566.525 1241.57 559.685C1249.96 552.846 1256.09 543.949 1259.33 533.917L1300.61 406.278C1303.88 396.143 1304.08 385.229 1301.21 374.679C1298.34 364.128 1292.5 354.329 1284.3 346.306L1179.3 230.342C1162.61 213.91 1139.76 206.518 1117.82 209.836L962.342 242.801C940.416 246.102 921.901 261.034 915.242 281.621L873.965 409.242L872.905 412.847C870.783 421.214 870.686 430.011 872.619 438.625C874.553 447.239 878.472 455.463 884.103 462.725L885.74 464.706L885.835 464.872C886.618 466.104 887.534 467.263 888.569 468.331L996.494 580.56C1004.44 588.387 1014.3 594.33 1025.13 597.835C1035.97 601.34 1047.43 602.293 1058.46 600.605L1058.44 600.598Z" fill="white" fill-opacity="0.07"/>
<path d="M331.907 692.333L528.209 656.728C542.584 654.478 555.831 648.67 566.579 639.906C577.326 631.142 585.182 619.741 589.333 606.885L642.234 443.324C646.413 430.337 646.678 416.351 642.999 402.832C639.32 389.312 631.834 376.755 621.323 366.474L486.781 217.873C465.389 196.817 436.105 187.344 408.001 191.596L208.76 233.839C180.663 238.069 156.937 257.203 148.405 283.584L95.5108 447.122L94.153 451.742C91.4334 462.463 91.3084 473.736 93.7866 484.774C96.2646 495.813 101.286 506.352 108.502 515.657L110.599 518.195L110.721 518.408C111.725 519.987 112.899 521.472 114.224 522.84L252.523 666.655C262.711 676.685 275.336 684.301 289.221 688.792C303.107 693.284 317.8 694.505 331.931 692.341L331.907 692.333Z" fill="#164AFF" fill-opacity="0.12"/>
<path d="M719.925 620.233L916.227 584.628C930.602 582.378 943.85 576.57 954.597 567.806C965.345 559.042 973.201 547.641 977.352 534.785L1030.25 371.225C1034.43 358.237 1034.7 344.252 1031.02 330.732C1027.34 317.212 1019.85 304.655 1009.34 294.374L874.8 145.773C853.408 124.717 824.124 115.245 796.019 119.496L596.779 161.74C568.682 165.969 544.956 185.104 536.423 211.484L483.53 375.022L482.172 379.642C479.452 390.363 479.327 401.636 481.805 412.675C484.283 423.713 489.305 434.252 496.52 443.557L498.618 446.096L498.74 446.309C499.743 447.887 500.918 449.372 502.243 450.741L640.542 594.555C650.729 604.585 663.354 612.201 677.24 616.692C691.125 621.184 705.819 622.405 719.95 620.241L719.925 620.233Z" fill="#0066FF" fill-opacity="0.11"/>
<path d="M713.043 561.375L811.034 543.601C818.21 542.478 824.823 539.579 830.188 535.204C835.553 530.829 839.475 525.138 841.547 518.72L867.954 437.073C870.04 430.59 870.172 423.608 868.336 416.86C866.5 410.111 862.763 403.842 857.516 398.71L790.354 324.53C779.676 314.02 765.057 309.291 751.028 311.413L651.57 332.501C637.544 334.612 625.7 344.164 621.441 357.333L595.037 438.969L594.359 441.275C593.002 446.627 592.939 452.254 594.176 457.764C595.413 463.275 597.92 468.535 601.522 473.18L602.569 474.448L602.63 474.554C603.131 475.342 603.717 476.083 604.379 476.766L673.416 548.557C678.501 553.563 684.803 557.365 691.735 559.607C698.666 561.849 706.001 562.459 713.055 561.379L713.043 561.375Z" fill="black" fill-opacity="0.04"/>
<path d="M833.53 339.217L956.921 316.836C965.957 315.422 974.284 311.771 981.04 306.262C987.795 300.753 992.733 293.587 995.342 285.506L1028.59 182.696C1031.22 174.532 1031.39 165.741 1029.08 157.243C1026.76 148.745 1022.06 140.852 1015.45 134.389L930.881 40.9821C917.434 27.7468 899.027 21.7925 881.361 24.4652L756.123 51.0184C738.462 53.6768 723.548 65.7043 718.185 82.2867L684.937 185.083L684.084 187.987C682.374 194.726 682.296 201.812 683.853 208.75C685.411 215.689 688.567 222.313 693.103 228.162L694.421 229.758L694.498 229.892C695.129 230.884 695.867 231.818 696.7 232.678L783.632 323.076C790.035 329.381 797.971 334.168 806.699 336.991C815.427 339.815 824.663 340.582 833.546 339.222L833.53 339.217Z" fill="#2E8EFE" fill-opacity="0.12"/>
</g>
<defs>
<linearGradient id="paint0_linear_24_2" x1="1469.74" y1="600.78" x2="349.624" y2="53.8969" gradientUnits="userSpaceOnUse">
<stop stop-color="#81B3FF"/>
<stop offset="1" stop-color="white"/>
</linearGradient>
<linearGradient id="paint1_linear_24_2" x1="1469.74" y1="600.78" x2="349.624" y2="53.8969" gradientUnits="userSpaceOnUse">
<stop stop-opacity="0.17"/>
<stop offset="1" stop-opacity="0.01"/>
</linearGradient>
</defs>
</svg>
