<svg width="32" height="26" viewBox="0 0 32 26" fill="none" xmlns="http://www.w3.org/2000/svg">
<path d="M28.7304 6.46998C28.75 6.75212 28.75 7.03426 28.75 7.319C28.7435 15.9951 22.1393 26 10.0635 26C6.49567 26.0036 3.00218 24.9804 0 23.0525C0.51771 23.1145 1.03861 23.1462 1.56002 23.1474C4.51769 23.1503 7.39041 22.1584 9.71635 20.3312C8.34633 20.3054 7.01862 19.852 5.9189 19.0345C4.81917 18.2169 4.00242 17.0761 3.58286 15.7715C4.56651 15.9612 5.58057 15.9225 6.5469 15.6584C5.06216 15.3584 3.72675 14.5544 2.76696 13.3824C1.80717 12.2104 1.28203 10.7426 1.28052 9.22766V9.14445C2.19358 9.65312 3.21547 9.93493 4.26017 9.96616C2.86888 9.03714 1.88414 7.61251 1.50659 5.98259C1.12905 4.35266 1.38713 2.64009 2.22823 1.19385C3.87607 3.22304 5.93234 4.88281 8.26344 6.06531C10.5945 7.2478 13.1483 7.92657 15.7588 8.0575C15.4324 6.64996 15.5788 5.17405 16.1755 3.85812C16.7721 2.54219 17.7857 1.45957 19.0595 0.777751C20.3333 0.0959348 21.7962 -0.147076 23.222 0.0863149C24.6477 0.319705 25.9569 1.01649 26.9468 2.06887C28.4173 1.77734 29.8273 1.23694 31.116 0.470945C30.6258 1.9912 29.6002 3.28166 28.2299 4.10235C29.5314 3.94898 30.8023 3.60052 32 3.06871C31.1209 4.38776 30.0137 5.53954 28.7304 6.46998Z" fill="#1D9BF0"/>
</svg>
